<svg width="108" height="108" viewBox="0 0 108 108" fill="none" xmlns="http://www.w3.org/2000/svg">
<path d="M82.8583 0C84.2423 0.281582 85.6264 0.495584 87.0104 0.825035C100.281 4.03225 109.291 17.0441 107.849 30.8557C107.17 37.3575 104.663 43.0032 100.148 47.6465C92.7736 55.2351 85.416 62.8519 77.8785 70.2687C65.2753 82.6583 44.3014 79.7468 35.2719 64.471C34.8511 63.7586 34.9148 63.3728 35.4905 62.7984C38.5355 59.7685 41.5278 56.688 44.5422 53.6272C44.7803 53.3851 45.0377 53.1655 45.3727 52.8642C46.1699 56.1812 47.756 58.8787 50.3137 60.9343C55.8167 65.3579 63.4954 65.0482 68.5112 60.0304C75.8448 52.6943 83.1166 45.2971 90.3266 37.839C94.3736 33.6575 95.3535 27.6654 93.0753 22.3857C91.9827 19.8535 90.1787 17.7062 87.8901 16.2137C85.6014 14.7213 82.9301 13.9502 80.212 13.9974C76.67 14.0213 73.2802 15.4651 70.7783 18.0156C68.3064 20.4823 65.8704 22.9855 63.429 25.4831C63.0387 25.883 62.7231 26.1139 62.092 25.8886C56.8539 23.9784 51.2304 23.4258 45.7297 24.2808C45.5453 24.2907 45.3605 24.2907 45.1761 24.2808C45.4114 23.9992 45.5332 23.8528 45.6716 23.7176C50.8646 18.438 56.0215 13.1245 61.2616 7.89555C65.7376 3.43248 71.1547 0.906694 77.3857 0.183029C77.6203 0.138604 77.8516 0.0774432 78.0778 0H82.8583Z" fill="white"/>
<path d="M0 77.4876C0.246564 76.1467 0.437092 74.7945 0.745296 73.4677C1.83717 68.5277 4.3018 63.9992 7.85362 60.4069C15.4355 52.7493 22.9585 45.0242 30.7028 37.5324C43.398 25.2532 64.9584 28.4439 73.745 43.7788C73.8655 43.9869 73.958 44.2118 74 44.2989L63.409 54.9083C63.0867 54.0284 62.7953 53.0276 62.3611 52.0971C58.2928 43.3628 46.9284 41.1897 40.0246 47.9394C33.0732 54.7368 26.2955 61.7141 19.3945 68.5678C17.2763 70.6705 15.385 72.8773 14.5193 75.815C13.6175 78.8021 13.7338 82.0056 14.8497 84.919C15.9657 87.8323 18.0176 90.2895 20.6811 91.9018C23.3447 93.5142 26.4678 94.1899 29.557 93.8221C32.6461 93.4543 35.5249 92.0639 37.7383 89.8709C40.246 87.4139 42.7088 84.912 45.1716 82.41C45.5919 81.9855 45.9449 81.8478 46.5473 82.0642C51.8153 83.9589 57.4705 84.5076 63.0027 83.661C63.1772 83.6505 63.3521 83.6505 63.5266 83.661C63.4023 83.848 63.2657 84.0264 63.1176 84.1951C57.794 89.5363 52.605 95.0462 47.0881 100.185C38.9823 107.739 29.3775 109.875 18.9266 106.339C8.79505 102.884 2.72341 95.5045 0.481921 85.0216C0.288592 84.1361 0.165312 83.2365 0.0112098 82.3425L0 77.4876Z" fill="white"/>
</svg>
