<svg width="35" height="35" viewBox="0 0 35 35" fill="none" xmlns="http://www.w3.org/2000/svg">
<path d="M35 17.5C35 27.165 27.165 35 17.5 35C7.83502 35 0 27.165 0 17.5C0 7.83502 7.83502 0 17.5 0C27.165 0 35 7.83502 35 17.5Z" fill="#66DAFF"/>
<path d="M17.4254 29.4171C16.1261 29.4171 14.947 29.2005 13.8882 28.7674C12.8536 28.3102 11.9632 27.6726 11.2173 26.8544C10.4954 26.0122 9.94199 24.9896 9.55699 23.7865C9.17199 22.5833 8.97949 21.2358 8.97949 19.744C8.97949 17.8671 9.25621 16.1105 9.80965 14.4743C10.3631 12.814 11.0729 11.3101 11.9392 9.96256C12.8295 8.59099 13.804 7.38787 14.8628 6.35318C15.9215 5.29443 16.9562 4.44021 17.9668 3.79053H21.865C20.5175 4.77709 19.3143 5.73959 18.2556 6.67803C17.1968 7.61646 16.2704 8.60303 15.4764 9.63771C14.6823 10.6483 14.0086 11.7432 13.4551 12.9222C12.9017 14.0772 12.4565 15.3886 12.1196 16.8565L12.3001 16.9286C12.9017 15.894 13.6717 15.0397 14.6101 14.366C15.5726 13.6682 16.8239 13.3193 18.3639 13.3193C19.4467 13.3193 20.4453 13.4997 21.3596 13.8607C22.274 14.2216 23.0561 14.739 23.7057 15.4127C24.3554 16.0865 24.8607 16.9046 25.2217 17.8671C25.6067 18.8296 25.7992 19.9004 25.7992 21.0794C25.7992 22.3066 25.5946 23.4376 25.1856 24.4722C24.8006 25.4829 24.2351 26.3611 23.4892 27.1071C22.7673 27.829 21.889 28.3944 20.8543 28.8035C19.8196 29.2126 18.6767 29.4171 17.4254 29.4171ZM17.3893 26.7822C19.0496 26.7822 20.337 26.3251 21.2514 25.4107C22.1898 24.4963 22.659 23.1849 22.659 21.4765V21.1877C22.659 19.4793 22.1898 18.1679 21.2514 17.2535C20.337 16.3391 19.0496 15.8819 17.3893 15.8819C15.729 15.8819 14.4296 16.3391 13.4912 17.2535C12.5768 18.1679 12.1196 19.4793 12.1196 21.1877V21.4765C12.1196 23.1849 12.5768 24.4963 13.4912 25.4107C14.4296 26.3251 15.729 26.7822 17.3893 26.7822Z" fill="black"/>
</svg>
