<svg width="265" height="49" viewBox="0 0 265 49" fill="none" xmlns="http://www.w3.org/2000/svg">
<path d="M88.739 34.756H94.481V22.216H88.409V19.972H94.481V16.474C94.481 15.33 94.778 14.395 95.372 13.669C95.988 12.943 96.945 12.58 98.243 12.58H103.952V14.824H97.121V19.972H103.952V22.216H97.121V34.756H103.193V37H88.739V34.756ZM116.743 16.21C115.973 16.21 115.434 16.056 115.126 15.748C114.818 15.418 114.664 15.011 114.664 14.527V13.999C114.664 13.515 114.818 13.119 115.126 12.811C115.434 12.481 115.973 12.316 116.743 12.316C117.513 12.316 118.052 12.481 118.36 12.811C118.668 13.119 118.822 13.515 118.822 13.999V14.527C118.822 15.011 118.668 15.418 118.36 15.748C118.052 16.056 117.513 16.21 116.743 16.21ZM109.285 34.756H115.423V22.216H109.285V19.972H118.063V34.756H123.805V37H109.285V34.756ZM128.115 34.756H133.098V22.216H128.115V19.972H135.738V24.262H135.903C136.255 22.92 136.915 21.875 137.883 21.127C138.873 20.357 140.127 19.972 141.645 19.972H144.021V22.612H140.82C139.302 22.612 138.07 23.052 137.124 23.932C136.2 24.812 135.738 25.967 135.738 27.397V34.756H142.338V37H128.115V34.756ZM155.459 37.396C153.677 37.396 152.137 37.099 150.839 36.505C149.563 35.889 148.474 35.075 147.572 34.063L149.354 32.512C150.168 33.37 151.059 34.03 152.027 34.492C152.995 34.954 154.161 35.185 155.525 35.185C156.845 35.185 157.923 34.954 158.759 34.492C159.617 34.008 160.046 33.26 160.046 32.248C160.046 31.808 159.958 31.445 159.782 31.159C159.628 30.851 159.408 30.609 159.122 30.433C158.836 30.257 158.517 30.125 158.165 30.037C157.813 29.927 157.439 29.839 157.043 29.773L154.37 29.377C153.776 29.289 153.127 29.168 152.423 29.014C151.741 28.86 151.114 28.618 150.542 28.288C149.97 27.936 149.486 27.474 149.09 26.902C148.716 26.33 148.529 25.582 148.529 24.658C148.529 23.8 148.694 23.063 149.024 22.447C149.376 21.809 149.86 21.281 150.476 20.863C151.092 20.423 151.818 20.104 152.654 19.906C153.49 19.686 154.403 19.576 155.393 19.576C156.933 19.576 158.264 19.818 159.386 20.302C160.53 20.786 161.509 21.457 162.323 22.315L160.607 23.932C160.409 23.69 160.156 23.448 159.848 23.206C159.562 22.942 159.199 22.711 158.759 22.513C158.341 22.293 157.846 22.117 157.274 21.985C156.702 21.853 156.042 21.787 155.294 21.787C153.952 21.787 152.918 22.018 152.192 22.48C151.488 22.942 151.136 23.613 151.136 24.493C151.136 24.933 151.213 25.307 151.367 25.615C151.543 25.901 151.774 26.132 152.06 26.308C152.346 26.484 152.665 26.627 153.017 26.737C153.391 26.825 153.765 26.902 154.139 26.968L156.812 27.364C157.428 27.452 158.077 27.573 158.759 27.727C159.441 27.881 160.068 28.134 160.64 28.486C161.212 28.816 161.685 29.267 162.059 29.839C162.455 30.411 162.653 31.159 162.653 32.083C162.653 33.777 161.993 35.086 160.673 36.01C159.375 36.934 157.637 37.396 155.459 37.396ZM175.873 37C174.575 37 173.618 36.637 173.002 35.911C172.408 35.185 172.111 34.25 172.111 33.106V22.216H166.435V19.972H170.659C171.231 19.972 171.627 19.862 171.847 19.642C172.089 19.4 172.21 18.993 172.21 18.421V13.966H174.751V19.972H182.506V22.216H174.751V34.756H182.506V37H175.873ZM195.43 37.396C194.198 37.396 193.098 37.187 192.13 36.769C191.184 36.329 190.381 35.724 189.721 34.954C189.061 34.184 188.555 33.249 188.203 32.149C187.873 31.049 187.708 29.828 187.708 28.486C187.708 27.144 187.884 25.923 188.236 24.823C188.588 23.723 189.094 22.788 189.754 22.018C190.414 21.226 191.217 20.621 192.163 20.203C193.109 19.785 194.187 19.576 195.397 19.576C197.047 19.576 198.389 19.939 199.423 20.665C200.457 21.391 201.216 22.337 201.7 23.503L199.588 24.625C199.28 23.745 198.763 23.063 198.037 22.579C197.333 22.095 196.453 21.853 195.397 21.853C194.627 21.853 193.934 21.985 193.318 22.249C192.724 22.491 192.218 22.843 191.8 23.305C191.382 23.767 191.063 24.317 190.843 24.955C190.645 25.593 190.546 26.286 190.546 27.034V29.938C190.546 30.686 190.645 31.379 190.843 32.017C191.063 32.655 191.382 33.205 191.8 33.667C192.218 34.129 192.735 34.492 193.351 34.756C193.967 34.998 194.671 35.119 195.463 35.119C196.607 35.119 197.553 34.855 198.301 34.327C199.049 33.799 199.643 33.073 200.083 32.149L201.964 33.436C201.458 34.58 200.666 35.526 199.588 36.274C198.532 37.022 197.146 37.396 195.43 37.396ZM214.623 37.396C213.435 37.396 212.357 37.187 211.389 36.769C210.443 36.351 209.629 35.757 208.947 34.987C208.287 34.195 207.781 33.26 207.429 32.182C207.077 31.082 206.901 29.85 206.901 28.486C206.901 27.144 207.077 25.923 207.429 24.823C207.781 23.723 208.287 22.788 208.947 22.018C209.629 21.226 210.443 20.621 211.389 20.203C212.357 19.785 213.435 19.576 214.623 19.576C215.811 19.576 216.878 19.785 217.824 20.203C218.792 20.621 219.606 21.226 220.266 22.018C220.948 22.788 221.465 23.723 221.817 24.823C222.169 25.923 222.345 27.144 222.345 28.486C222.345 29.85 222.169 31.082 221.817 32.182C221.465 33.26 220.948 34.195 220.266 34.987C219.606 35.757 218.792 36.351 217.824 36.769C216.878 37.187 215.811 37.396 214.623 37.396ZM214.623 35.119C216.097 35.119 217.285 34.679 218.187 33.799C219.089 32.919 219.54 31.555 219.54 29.707V27.265C219.54 25.417 219.089 24.053 218.187 23.173C217.285 22.293 216.097 21.853 214.623 21.853C213.149 21.853 211.961 22.293 211.059 23.173C210.157 24.053 209.706 25.417 209.706 27.265V29.707C209.706 31.555 210.157 32.919 211.059 33.799C211.961 34.679 213.149 35.119 214.623 35.119ZM238.535 34.228H238.403C237.303 36.34 235.554 37.396 233.156 37.396C231.066 37.396 229.427 36.615 228.239 35.053C227.073 33.491 226.49 31.302 226.49 28.486C226.49 25.67 227.073 23.481 228.239 21.919C229.427 20.357 231.066 19.576 233.156 19.576C235.554 19.576 237.303 20.632 238.403 22.744H238.535V12.58H241.175V37H238.535V34.228ZM234.179 35.053C234.773 35.053 235.334 34.976 235.862 34.822C236.39 34.668 236.852 34.448 237.248 34.162C237.644 33.854 237.952 33.491 238.172 33.073C238.414 32.633 238.535 32.127 238.535 31.555V25.417C238.535 24.845 238.414 24.35 238.172 23.932C237.952 23.492 237.644 23.129 237.248 22.843C236.852 22.535 236.39 22.304 235.862 22.15C235.334 21.996 234.773 21.919 234.179 21.919C232.639 21.919 231.44 22.392 230.582 23.338C229.746 24.262 229.328 25.494 229.328 27.034V29.938C229.328 31.478 229.746 32.721 230.582 33.667C231.44 34.591 232.639 35.053 234.179 35.053ZM254.494 37.396C253.262 37.396 252.151 37.187 251.161 36.769C250.193 36.351 249.357 35.757 248.653 34.987C247.971 34.195 247.443 33.26 247.069 32.182C246.695 31.082 246.508 29.861 246.508 28.519C246.508 27.155 246.695 25.923 247.069 24.823C247.465 23.723 248.004 22.788 248.686 22.018C249.368 21.226 250.182 20.621 251.128 20.203C252.096 19.785 253.163 19.576 254.329 19.576C255.473 19.576 256.507 19.785 257.431 20.203C258.377 20.621 259.18 21.204 259.84 21.952C260.5 22.678 261.006 23.547 261.358 24.559C261.71 25.571 261.886 26.682 261.886 27.892V29.146H249.28V29.938C249.28 30.686 249.401 31.379 249.643 32.017C249.885 32.655 250.226 33.205 250.666 33.667C251.128 34.129 251.678 34.492 252.316 34.756C252.976 34.998 253.702 35.119 254.494 35.119C255.638 35.119 256.628 34.855 257.464 34.327C258.3 33.799 258.938 33.073 259.378 32.149L261.325 33.469C260.819 34.613 259.972 35.559 258.784 36.307C257.618 37.033 256.188 37.396 254.494 37.396ZM254.329 21.754C253.603 21.754 252.932 21.886 252.316 22.15C251.7 22.414 251.161 22.777 250.699 23.239C250.259 23.701 249.907 24.251 249.643 24.889C249.401 25.505 249.28 26.187 249.28 26.935V27.166H259.048V26.803C259.048 26.055 258.927 25.373 258.685 24.757C258.465 24.141 258.146 23.613 257.728 23.173C257.332 22.711 256.837 22.359 256.243 22.117C255.671 21.875 255.033 21.754 254.329 21.754Z" fill="black"/>
<path d="M0 30.5578V28.7656C1.62927 28.7656 2.76585 28.4284 3.40976 27.7539C4.06342 27.0794 4.39024 25.9521 4.39024 24.3719V19.7469C4.39024 18.4172 4.51707 17.2658 4.77073 16.2926C5.03415 15.3194 5.45854 14.5148 6.0439 13.8789C6.62927 13.243 7.40976 12.7708 8.38537 12.4625C9.36098 12.1542 10.5659 12 12 12V14.8328C10.8683 14.8328 9.97561 15.0063 9.32195 15.3531C8.67805 15.7 8.21951 16.2396 7.94634 16.9719C7.68293 17.6945 7.55122 18.6195 7.55122 19.7469V25.5281C7.55122 26.2797 7.44878 26.9638 7.2439 27.5805C7.04878 28.1971 6.68293 28.7271 6.14634 29.1703C5.60976 29.6135 4.8439 29.9556 3.84878 30.1965C2.86341 30.4374 1.58049 30.5578 0 30.5578ZM12 49C10.5659 49 9.36098 48.8458 8.38537 48.5375C7.40976 48.2292 6.62927 47.757 6.0439 47.1211C5.45854 46.4852 5.03415 45.6806 4.77073 44.7074C4.51707 43.7342 4.39024 42.5828 4.39024 41.2531V36.6281C4.39024 35.0479 4.06342 33.9206 3.40976 33.2461C2.76585 32.5716 1.62927 32.2344 0 32.2344V30.4422C1.58049 30.4422 2.86341 30.5626 3.84878 30.8035C4.8439 31.0444 5.60976 31.3865 6.14634 31.8297C6.68293 32.2729 7.04878 32.8029 7.2439 33.4195C7.44878 34.0362 7.55122 34.7203 7.55122 35.4719V41.2531C7.55122 42.3805 7.68293 43.3055 7.94634 44.0281C8.21951 44.7508 8.67805 45.2855 9.32195 45.6324C9.97561 45.9889 10.8683 46.1672 12 46.1672V49ZM0 32.2344V28.7656H3.45366V32.2344H0Z" fill="black"/>
<path d="M75 24.0531V22.4063C73.5065 22.4063 72.4646 22.0964 71.8744 21.4766C71.2752 20.8568 70.9756 19.8208 70.9756 18.3688V14.1188C70.9756 12.8969 70.8593 11.8388 70.6268 10.9445C70.3854 10.0503 69.9963 9.31094 69.4598 8.72656C68.9232 8.14219 68.2077 7.70833 67.3134 7.425C66.4191 7.14167 65.3146 7 64 7V9.60313C65.0374 9.60313 65.8557 9.7625 66.4549 10.0812C67.0451 10.4 67.4654 10.8958 67.7159 11.5688C67.9573 12.2328 68.078 13.0828 68.078 14.1188V19.4312C68.078 20.1219 68.172 20.7505 68.3598 21.3172C68.5386 21.8839 68.874 22.3708 69.3659 22.7781C69.8577 23.1854 70.5598 23.4997 71.472 23.7211C72.3752 23.9424 73.5512 24.0531 75 24.0531ZM64 41C65.3146 41 66.4191 40.8583 67.3134 40.575C68.2077 40.2917 68.9232 39.8578 69.4598 39.2734C69.9963 38.6891 70.3854 37.9497 70.6268 37.0555C70.8593 36.1612 70.9756 35.1031 70.9756 33.8813V29.6313C70.9756 28.1792 71.2752 27.1432 71.8744 26.5234C72.4646 25.9036 73.5065 25.5938 75 25.5938V23.9469C73.5512 23.9469 72.3752 24.0576 71.472 24.2789C70.5598 24.5003 69.8577 24.8146 69.3659 25.2219C68.874 25.6292 68.5386 26.1161 68.3598 26.6828C68.172 27.2495 68.078 27.8781 68.078 28.5688V33.8813C68.078 34.9172 67.9573 35.7672 67.7159 36.4313C67.4654 37.0953 67.0451 37.5867 66.4549 37.9055C65.8557 38.2331 65.0374 38.3969 64 38.3969V41ZM75 25.5938V22.4063H71.8341V25.5938H75Z" fill="black"/>
<rect x="32" width="30" height="5" fill="white"/>
<rect x="27" y="13" width="29" height="5" fill="white"/>
<rect x="21" y="26" width="29" height="5" fill="white"/>
<rect x="14" y="39" width="30" height="5" fill="white"/>
</svg>
