<svg width="240" height="45" viewBox="0 0 240 45" fill="none" xmlns="http://www.w3.org/2000/svg">
<path d="M81.7442 31.8743H86.9924V20.4128H81.4426V18.3618H86.9924V15.1647C86.9924 14.119 87.2639 13.2645 87.8068 12.6009C88.3698 11.9373 89.2445 11.6056 90.4309 11.6056H95.6489V13.6566H89.4054V18.3618H95.6489V20.4128H89.4054V31.8743H94.9552V33.9254H81.7442V31.8743Z" fill="white"/>
<path d="M107.34 14.9234C106.636 14.9234 106.143 14.7826 105.862 14.5011C105.58 14.1995 105.44 13.8275 105.44 13.3851V12.9025C105.44 12.4601 105.58 12.0982 105.862 11.8167C106.143 11.5151 106.636 11.3643 107.34 11.3643C108.044 11.3643 108.536 11.5151 108.818 11.8167C109.099 12.0982 109.24 12.4601 109.24 12.9025V13.3851C109.24 13.8275 109.099 14.1995 108.818 14.5011C108.536 14.7826 108.044 14.9234 107.34 14.9234ZM100.523 31.8743H106.133V20.4128H100.523V18.3618H108.546V31.8743H113.795V33.9254H100.523V31.8743Z" fill="white"/>
<path d="M117.734 31.8743H122.288V20.4128H117.734V18.3618H124.701V22.2829H124.852C125.174 21.0563 125.777 20.1012 126.662 19.4175C127.567 18.7137 128.713 18.3618 130.1 18.3618H132.272V20.7748H129.346C127.959 20.7748 126.833 21.1769 125.968 21.9812C125.124 22.7856 124.701 23.8412 124.701 25.1482V31.8743H130.734V33.9254H117.734V31.8743Z" fill="white"/>
<path d="M142.726 34.2873C141.098 34.2873 139.69 34.0158 138.504 33.4729C137.337 32.9099 136.342 32.1659 135.518 31.2409L137.146 29.8233C137.89 30.6075 138.705 31.2108 139.59 31.6331C140.474 32.0553 141.54 32.2665 142.787 32.2665C143.993 32.2665 144.978 32.0553 145.743 31.6331C146.527 31.1907 146.919 30.507 146.919 29.582C146.919 29.1799 146.838 28.8481 146.678 28.5867C146.537 28.3052 146.336 28.084 146.074 27.9231C145.813 27.7623 145.521 27.6416 145.2 27.5612C144.878 27.4607 144.536 27.3802 144.174 27.3199L141.731 26.958C141.188 26.8775 140.595 26.7669 139.952 26.6262C139.328 26.4854 138.755 26.2642 138.232 25.9626C137.709 25.6409 137.267 25.2186 136.905 24.6958C136.563 24.173 136.392 23.4893 136.392 22.6448C136.392 21.8606 136.543 21.187 136.845 20.624C137.167 20.0408 137.609 19.5582 138.172 19.1762C138.735 18.774 139.399 18.4825 140.163 18.3015C140.927 18.1004 141.761 17.9999 142.666 17.9999C144.074 17.9999 145.29 18.2211 146.316 18.6634C147.361 19.1058 148.256 19.7191 149 20.5033L147.432 21.9812C147.251 21.7601 147.019 21.5389 146.738 21.3177C146.477 21.0764 146.145 20.8653 145.743 20.6843C145.361 20.4832 144.908 20.3223 144.385 20.2017C143.863 20.081 143.259 20.0207 142.576 20.0207C141.349 20.0207 140.404 20.2319 139.74 20.6541C139.097 21.0764 138.775 21.6897 138.775 22.494C138.775 22.8962 138.846 23.238 138.986 23.5195C139.147 23.7809 139.358 23.992 139.62 24.1529C139.881 24.3138 140.173 24.4445 140.494 24.545C140.836 24.6254 141.178 24.6958 141.52 24.7561L143.963 25.1181C144.526 25.1985 145.119 25.3091 145.743 25.4499C146.366 25.5906 146.939 25.8219 147.462 26.1436C147.985 26.4452 148.417 26.8574 148.759 27.3802C149.121 27.903 149.302 28.5867 149.302 29.4312C149.302 30.9795 148.698 32.176 147.492 33.0205C146.306 33.865 144.717 34.2873 142.726 34.2873Z" fill="white"/>
<path d="M161.385 33.9254C160.198 33.9254 159.324 33.5936 158.761 32.93C158.218 32.2665 157.946 31.4119 157.946 30.3663V20.4128H152.759V18.3618H156.619C157.142 18.3618 157.504 18.2613 157.705 18.0602C157.926 17.839 158.037 17.467 158.037 16.9442V12.8724H160.359V18.3618H167.447V20.4128H160.359V31.8743H167.447V33.9254H161.385Z" fill="white"/>
<path d="M179.259 34.2873C178.133 34.2873 177.128 34.0963 176.243 33.7142C175.378 33.3121 174.644 32.7591 174.041 32.0553C173.438 31.3515 172.975 30.497 172.654 29.4916C172.352 28.4862 172.201 27.3702 172.201 26.1436C172.201 24.917 172.362 23.801 172.684 22.7956C173.005 21.7902 173.468 20.9356 174.071 20.2319C174.674 19.508 175.408 18.955 176.273 18.573C177.138 18.1909 178.123 17.9999 179.229 17.9999C180.737 17.9999 181.964 18.3317 182.909 18.9952C183.854 19.6588 184.547 20.5234 184.99 21.5891L183.059 22.6146C182.778 21.8103 182.305 21.187 181.642 20.7446C180.998 20.3022 180.194 20.081 179.229 20.081C178.525 20.081 177.892 20.2017 177.329 20.443C176.786 20.6642 176.323 20.9859 175.941 21.4082C175.559 21.8304 175.268 22.3331 175.067 22.9163C174.886 23.4994 174.795 24.1328 174.795 24.8165V27.4707C174.795 28.1544 174.886 28.7878 175.067 29.3709C175.268 29.954 175.559 30.4567 175.941 30.879C176.323 31.3013 176.796 31.6331 177.359 31.8743C177.922 32.0955 178.565 32.2061 179.289 32.2061C180.335 32.2061 181.199 31.9648 181.883 31.4822C182.567 30.9997 183.11 30.3361 183.512 29.4916L185.231 30.6679C184.769 31.7135 184.045 32.5781 183.059 33.2618C182.094 33.9455 180.827 34.2873 179.259 34.2873Z" fill="white"/>
<path d="M196.801 34.2873C195.716 34.2873 194.73 34.0963 193.846 33.7142C192.981 33.3322 192.237 32.7893 191.614 32.0855C191.01 31.3616 190.548 30.507 190.226 29.5217C189.904 28.5163 189.744 27.3903 189.744 26.1436C189.744 24.917 189.904 23.801 190.226 22.7956C190.548 21.7902 191.01 20.9356 191.614 20.2319C192.237 19.508 192.981 18.955 193.846 18.573C194.73 18.1909 195.716 17.9999 196.801 17.9999C197.887 17.9999 198.863 18.1909 199.727 18.573C200.612 18.955 201.356 19.508 201.959 20.2319C202.583 20.9356 203.055 21.7902 203.377 22.7956C203.699 23.801 203.859 24.917 203.859 26.1436C203.859 27.3903 203.699 28.5163 203.377 29.5217C203.055 30.507 202.583 31.3616 201.959 32.0855C201.356 32.7893 200.612 33.3322 199.727 33.7142C198.863 34.0963 197.887 34.2873 196.801 34.2873ZM196.801 32.2061C198.149 32.2061 199.235 31.804 200.059 30.9997C200.883 30.1953 201.296 28.9486 201.296 27.2596V25.0276C201.296 23.3385 200.883 22.0918 200.059 21.2875C199.235 20.4832 198.149 20.081 196.801 20.081C195.454 20.081 194.368 20.4832 193.544 21.2875C192.72 22.0918 192.307 23.3385 192.307 25.0276V27.2596C192.307 28.9486 192.72 30.1953 193.544 30.9997C194.368 31.804 195.454 32.2061 196.801 32.2061Z" fill="white"/>
<path d="M218.657 31.3918H218.536C217.531 33.3221 215.932 34.2873 213.741 34.2873C211.83 34.2873 210.332 33.5735 209.247 32.1458C208.181 30.7181 207.648 28.7174 207.648 26.1436C207.648 23.5698 208.181 21.569 209.247 20.1414C210.332 18.7137 211.83 17.9999 213.741 17.9999C215.932 17.9999 217.531 18.9651 218.536 20.8954H218.657V11.6056H221.07V33.9254H218.657V31.3918ZM214.676 32.1458C215.219 32.1458 215.731 32.0754 216.214 31.9347C216.697 31.7939 217.119 31.5928 217.481 31.3314C217.843 31.0499 218.124 30.7181 218.325 30.3361C218.546 29.9339 218.657 29.4714 218.657 28.9486V23.3385C218.657 22.8157 218.546 22.3633 218.325 21.9812C218.124 21.5791 217.843 21.2473 217.481 20.9859C217.119 20.7044 216.697 20.4933 216.214 20.3525C215.731 20.2117 215.219 20.1414 214.676 20.1414C213.268 20.1414 212.172 20.5737 211.388 21.4383C210.624 22.2829 210.242 23.4089 210.242 24.8165V27.4707C210.242 28.8783 210.624 30.0144 211.388 30.879C212.172 31.7235 213.268 32.1458 214.676 32.1458Z" fill="white"/>
<path d="M233.244 34.2873C232.118 34.2873 231.102 34.0963 230.197 33.7142C229.313 33.3322 228.548 32.7893 227.905 32.0855C227.282 31.3616 226.799 30.507 226.457 29.5217C226.115 28.5163 225.944 27.4003 225.944 26.1737C225.944 24.9271 226.115 23.801 226.457 22.7956C226.819 21.7902 227.312 20.9356 227.935 20.2319C228.559 19.508 229.302 18.955 230.167 18.573C231.052 18.1909 232.027 17.9999 233.093 17.9999C234.138 17.9999 235.084 18.1909 235.928 18.573C236.793 18.955 237.527 19.4879 238.13 20.1715C238.733 20.8351 239.196 21.6294 239.517 22.5543C239.839 23.4793 240 24.4947 240 25.6007V26.7468H228.478V27.4707C228.478 28.1544 228.589 28.7878 228.81 29.3709C229.031 29.954 229.343 30.4567 229.745 30.879C230.167 31.3013 230.67 31.6331 231.253 31.8743C231.856 32.0955 232.52 32.2061 233.244 32.2061C234.289 32.2061 235.194 31.9648 235.958 31.4822C236.722 30.9997 237.305 30.3361 237.708 29.4916L239.487 30.698C239.025 31.7436 238.251 32.6083 237.165 33.292C236.099 33.9555 234.792 34.2873 233.244 34.2873ZM233.093 19.9906C232.429 19.9906 231.816 20.1112 231.253 20.3525C230.69 20.5938 230.197 20.9256 229.775 21.3478C229.373 21.7701 229.051 22.2728 228.81 22.8559C228.589 23.419 228.478 24.0423 228.478 24.726V24.9371H237.406V24.6053C237.406 23.9217 237.295 23.2983 237.074 22.7353C236.873 22.1723 236.582 21.6897 236.2 21.2875C235.838 20.8653 235.385 20.5435 234.842 20.3223C234.319 20.1012 233.736 19.9906 233.093 19.9906Z" fill="white"/>
<path d="M0.636963 28.037V26.3989C2.12611 26.3989 3.16494 26.0907 3.75347 25.4742C4.35091 24.8577 4.64963 23.8274 4.64963 22.383V18.1558C4.64963 16.9405 4.76555 15.8881 4.9974 14.9986C5.23816 14.1091 5.62605 13.3738 6.16107 12.7925C6.69609 12.2113 7.40946 11.7797 8.30116 11.4979C9.19286 11.2161 10.2941 11.0752 11.6049 11.0752V13.6644C10.5705 13.6644 9.75464 13.8229 9.1572 14.1399C8.56867 14.457 8.14957 14.9502 7.89989 15.6195C7.65913 16.28 7.53875 17.1254 7.53875 18.1558V23.4399C7.53875 24.1268 7.44512 24.7521 7.25787 25.3157C7.07953 25.8793 6.74514 26.3637 6.2547 26.7688C5.76426 27.1739 5.06427 27.4866 4.15474 27.7067C3.25411 27.9269 2.08152 28.037 0.636963 28.037ZM11.6049 44.8931C10.2941 44.8931 9.19286 44.7522 8.30116 44.4703C7.40946 44.1885 6.69609 43.757 6.16107 43.1758C5.62605 42.5945 5.23816 41.8591 4.9974 40.9697C4.76555 40.0802 4.64963 39.0278 4.64963 37.8125V33.5852C4.64963 32.1409 4.35091 31.1105 3.75347 30.4941C3.16494 29.8776 2.12611 29.5693 0.636963 29.5693V27.9313C2.08152 27.9313 3.25411 28.0414 4.15474 28.2615C5.06427 28.4817 5.76426 28.7944 6.2547 29.1995C6.74514 29.6046 7.07953 30.0889 7.25787 30.6526C7.44512 31.2162 7.53875 31.8415 7.53875 32.5284V37.8125C7.53875 38.8428 7.65913 39.6883 7.89989 40.3488C8.14957 41.0093 8.56867 41.4981 9.1572 41.8151C9.75464 42.141 10.5705 42.3039 11.6049 42.3039V44.8931ZM0.636963 29.5693V26.3989H3.7936V29.5693H0.636963Z" fill="white"/>
<path d="M69.1868 22.0924V20.5871C67.8217 20.5871 66.8695 20.3039 66.33 19.7374C65.7823 19.1709 65.5085 18.2241 65.5085 16.8969V13.0124C65.5085 11.8956 65.4022 10.9285 65.1897 10.1111C64.969 9.29379 64.6134 8.61805 64.123 8.08393C63.6326 7.54982 62.9786 7.15327 62.1613 6.89431C61.3439 6.63534 60.3344 6.50586 59.1328 6.50586V8.88511C60.081 8.88511 60.8289 9.03078 61.3766 9.32211C61.916 9.61345 62.3002 10.0666 62.5291 10.6817C62.7498 11.2886 62.8601 12.0655 62.8601 13.0124V17.868C62.8601 18.4992 62.946 19.0738 63.1176 19.5917C63.2811 20.1097 63.5876 20.5548 64.0372 20.927C64.4867 21.2993 65.1284 21.5866 65.9621 21.7889C66.7877 21.9912 67.8626 22.0924 69.1868 22.0924ZM59.1328 37.5817C60.3344 37.5817 61.3439 37.4523 62.1613 37.1933C62.9786 36.9343 63.6326 36.5378 64.123 36.0037C64.6134 35.4696 64.969 34.7938 65.1897 33.9765C65.4022 33.1591 65.5085 32.192 65.5085 31.0752V27.1907C65.5085 25.8635 65.7823 24.9167 66.33 24.3502C66.8695 23.7837 67.8217 23.5005 69.1868 23.5005V21.9952C67.8626 21.9952 66.7877 22.0964 65.9621 22.2987C65.1284 22.501 64.4867 22.7883 64.0372 23.1606C63.5876 23.5329 63.2811 23.978 63.1176 24.4959C62.946 25.0138 62.8601 25.5884 62.8601 26.2196V31.0752C62.8601 32.0221 62.7498 32.799 62.5291 33.4059C62.3002 34.0129 61.916 34.462 61.3766 34.7534C60.8289 35.0528 60.081 35.2025 59.1328 35.2025V37.5817ZM69.1868 23.5005V20.5871H66.2932V23.5005H69.1868Z" fill="white"/>
<path d="M29.885 0.107422H57.3049V4.67741H29.885V0.107422Z" fill="white"/>
<path d="M25.3157 11.9883H51.8216V16.5583H25.3157V11.9883Z" fill="white"/>
<path d="M19.8311 23.8721H46.337V28.4421H19.8311V23.8721Z" fill="white"/>
<path d="M13.4336 35.752H40.8535V40.3219H13.4336V35.752Z" fill="white"/>
</svg>
