<svg width="120" height="108" viewBox="0 0 120 108" fill="none" xmlns="http://www.w3.org/2000/svg">
<g clip-path="url(#clip0_227_351)">
<path fill-rule="evenodd" clip-rule="evenodd" d="M100.914 36.4488H46.3127V44.2993H100.914V36.4488ZM43.3613 33.3086V47.4394H103.866V33.3086H43.3613Z" fill="white"/>
<path d="M16.1348 38.355H36.3028V41.383H16.1348V38.355Z" fill="white"/>
<path d="M16.1348 61.5703H36.3028V64.5983H16.1348V61.5703Z" fill="white"/>
<path d="M62.5215 85.7944H103.866V88.8225H62.5215V85.7944Z" fill="white"/>
<path fill-rule="evenodd" clip-rule="evenodd" d="M100.914 59.6636H46.3127V67.5141H100.914V59.6636ZM43.3613 56.5234V70.6543H103.866V56.5234H43.3613Z" fill="white"/>
<path fill-rule="evenodd" clip-rule="evenodd" d="M52.7731 84.4485H46.0504V91.1774H52.7731V84.4485ZM43.3613 81.7568V93.869H55.4622V81.7568H43.3613Z" fill="white"/>
<path d="M38.3193 14.1309H82.6891V17.1589H38.3193V14.1309Z" fill="white"/>
<path d="M118.487 1.51416H1.5127V106.486H118.487V1.51416Z" stroke="white" stroke-width="3"/>
</g>
<defs>
<clipPath id="clip0_227_351">
<rect width="120" height="108" fill="white"/>
</clipPath>
</defs>
</svg>
