<svg width="35" height="35" viewBox="0 0 35 35" fill="none" xmlns="http://www.w3.org/2000/svg">
<path d="M35 17.5C35 27.165 27.165 35 17.5 35C7.83502 35 0 27.165 0 17.5C0 7.83502 7.83502 0 17.5 0C27.165 0 35 7.83502 35 17.5Z" fill="#66DAFF"/>
<path d="M26 29H9.21983V25.8507L17.5733 18.1606C18.7701 17.062 19.7716 15.9023 20.5776 14.6817C21.3836 13.4366 21.7866 12.1915 21.7866 10.9465V10.507C21.7866 9.09108 21.3958 7.94366 20.6142 7.06479C19.8326 6.18592 18.648 5.74648 17.0603 5.74648C16.2787 5.74648 15.5948 5.85634 15.0086 6.07606C14.4224 6.29577 13.9095 6.60094 13.4698 6.99155C13.0546 7.38216 12.7004 7.84601 12.4073 8.3831C12.1386 8.89577 11.9188 9.45728 11.7478 10.0676L9 9.00564C9.24425 8.24883 9.57399 7.51643 9.98922 6.80845C10.4289 6.07606 10.9662 5.42911 11.6013 4.86761C12.2608 4.3061 13.0424 3.85446 13.9461 3.51268C14.8743 3.17089 15.9612 3 17.2069 3C18.4526 3 19.5639 3.1831 20.5409 3.5493C21.518 3.91549 22.3362 4.42817 22.9957 5.08732C23.6552 5.74648 24.1559 6.5277 24.4978 7.43099C24.8642 8.33427 25.0474 9.33521 25.0474 10.4338C25.0474 11.4347 24.9009 12.3624 24.6078 13.2169C24.3391 14.0714 23.9605 14.8892 23.472 15.6704C22.9835 16.4272 22.3851 17.1718 21.6767 17.9042C20.9928 18.6366 20.2478 19.369 19.4418 20.1014L12.5539 26.2901H26V29Z" fill="black"/>
</svg>
