<svg width="35" height="35" viewBox="0 0 35 35" fill="none" xmlns="http://www.w3.org/2000/svg">
<path d="M35 17.5C35 27.165 27.165 35 17.5 35C7.83502 35 0 27.165 0 17.5C0 7.83502 7.83502 0 17.5 0C27.165 0 35 7.83502 35 17.5Z" fill="#66DAFF"/>
<path d="M15.9817 14.4738C17.6901 14.4738 18.9654 14.0888 19.8076 13.3188C20.6739 12.5247 21.107 11.5141 21.107 10.2869V10.0343C21.107 8.71084 20.6859 7.72428 19.8437 7.07459C19.0256 6.40084 17.9428 6.06396 16.5953 6.06396C15.2959 6.06396 14.2371 6.35271 13.419 6.93022C12.6009 7.48365 11.9271 8.24162 11.3978 9.20412L9.15996 7.47162C9.47277 6.96631 9.84574 6.47303 10.2789 5.99178C10.7361 5.48646 11.2654 5.04131 11.867 4.65631C12.4686 4.27131 13.1664 3.9585 13.9604 3.71787C14.7545 3.47725 15.6568 3.35693 16.6675 3.35693C17.7262 3.35693 18.7248 3.50131 19.6632 3.79006C20.6017 4.05475 21.4078 4.46381 22.0815 5.01725C22.7793 5.54662 23.3207 6.20834 23.7057 7.0024C24.1148 7.79646 24.3193 8.69881 24.3193 9.70943C24.3193 10.5276 24.187 11.2615 23.9223 11.9112C23.6817 12.5608 23.3448 13.1263 22.9117 13.6076C22.4786 14.0888 21.9612 14.4979 21.3596 14.8347C20.7821 15.1716 20.1565 15.4243 19.4828 15.5927V15.7371C20.1565 15.8815 20.8062 16.1221 21.4318 16.459C22.0815 16.7718 22.647 17.1929 23.1282 17.7222C23.6336 18.2276 24.0306 18.8532 24.3193 19.5991C24.6321 20.321 24.7886 21.1511 24.7886 22.0896C24.7886 23.1724 24.584 24.171 24.175 25.0854C23.7659 25.9757 23.1884 26.7457 22.4425 27.3954C21.6965 28.021 20.7942 28.5143 19.7354 28.8752C18.6767 29.2362 17.5096 29.4166 16.2343 29.4166C15.1515 29.4166 14.189 29.2963 13.3468 29.0557C12.5046 28.8151 11.7587 28.4902 11.109 28.0812C10.4593 27.6721 9.88184 27.2149 9.37652 26.7096C8.89527 26.2043 8.46215 25.6749 8.07715 25.1215L10.3511 23.389C10.6639 23.8943 11.0007 24.3515 11.3617 24.7605C11.7467 25.1696 12.1678 25.5185 12.625 25.8072C13.0821 26.096 13.5995 26.3246 14.177 26.493C14.7545 26.6374 15.4282 26.7096 16.1982 26.7096C17.9789 26.7096 19.3264 26.3126 20.2407 25.5185C21.1551 24.7004 21.6123 23.5454 21.6123 22.0535V21.7647C21.6123 20.2729 21.1551 19.1299 20.2407 18.3358C19.3264 17.5177 17.9789 17.1087 16.1982 17.1087H13.2386V14.4738H15.9817Z" fill="black"/>
</svg>
