<svg width="35" height="35" viewBox="0 0 35 35" fill="none" xmlns="http://www.w3.org/2000/svg">
<path d="M35 17.5C35 27.165 27.165 35 17.5 35C7.83502 35 0 27.165 0 17.5C0 7.83502 7.83502 0 17.5 0C27.165 0 35 7.83502 35 17.5Z" fill="#66DAFF"/>
<path d="M24.5363 6.46146H13.4916L12.7697 16.0624H13.0224C13.6239 15.2202 14.2977 14.5465 15.0436 14.0411C15.8136 13.5358 16.8604 13.2832 18.1838 13.2832C19.2666 13.2832 20.2652 13.4636 21.1796 13.8246C22.0939 14.1855 22.888 14.7029 23.5618 15.3766C24.2355 16.0263 24.7529 16.8324 25.1138 17.7949C25.4988 18.7574 25.6913 19.8522 25.6913 21.0794C25.6913 22.3066 25.4988 23.4376 25.1138 24.4722C24.7288 25.4829 24.1633 26.3611 23.4174 27.1071C22.6955 27.829 21.8052 28.3944 20.7464 28.8035C19.7118 29.2126 18.5327 29.4171 17.2093 29.4171C16.1505 29.4171 15.2121 29.2968 14.3939 29.0561C13.5999 28.8155 12.89 28.4907 12.2644 28.0816C11.6388 27.6726 11.0854 27.2154 10.6041 26.7101C10.1469 26.2047 9.72582 25.6754 9.34082 25.1219L11.6147 23.3894C11.9275 23.8947 12.2524 24.3519 12.5893 24.761C12.9502 25.1701 13.3352 25.519 13.7443 25.8077C14.1774 26.0965 14.6707 26.3251 15.2241 26.4935C15.7775 26.6379 16.4393 26.7101 17.2093 26.7101C18.9418 26.7101 20.2532 26.2529 21.1435 25.3385C22.0338 24.4241 22.4789 23.1368 22.4789 21.4765V21.1155C22.4789 19.4552 22.0338 18.1679 21.1435 17.2535C20.2532 16.3391 18.9418 15.8819 17.2093 15.8819C16.0543 15.8819 15.1399 16.0985 14.4661 16.5316C13.8164 16.9407 13.2269 17.434 12.6975 18.0115L10.1349 17.6505L11.0372 3.79053H24.5363V6.46146Z" fill="black"/>
</svg>
