<svg width="230" height="43" viewBox="0 0 230 43" fill="none" xmlns="http://www.w3.org/2000/svg">
<path d="M77.8711 30.4994H82.9099V19.4952H77.5815V17.526H82.9099V14.4564C82.9099 13.4525 83.1705 12.632 83.6918 11.9949C84.2323 11.3578 85.0721 11.0393 86.2112 11.0393H91.221V13.0085H85.2266V17.526H91.221V19.4952H85.2266V30.4994H90.555V32.4686H77.8711V30.4994Z" fill="black"/>
<path d="M102.446 14.2247C101.77 14.2247 101.297 14.0896 101.027 13.8193C100.756 13.5297 100.621 13.1726 100.621 12.7478V12.2845C100.621 11.8598 100.756 11.5123 101.027 11.242C101.297 10.9524 101.77 10.8076 102.446 10.8076C103.121 10.8076 103.594 10.9524 103.865 11.242C104.135 11.5123 104.27 11.8598 104.27 12.2845V12.7478C104.27 13.1726 104.135 13.5297 103.865 13.8193C103.594 14.0896 103.121 14.2247 102.446 14.2247ZM95.901 30.4994H101.287V19.4952H95.901V17.526H103.604V30.4994H108.643V32.4686H95.901V30.4994Z" fill="black"/>
<path d="M112.425 30.4994H116.798V19.4952H112.425V17.526H119.114V21.2906H119.259C119.568 20.113 120.147 19.1959 120.997 18.5395C121.865 17.8638 122.966 17.526 124.298 17.526H126.383V19.8427H123.574C122.242 19.8427 121.161 20.2288 120.331 21.001C119.52 21.7732 119.114 22.7868 119.114 24.0417V30.4994H124.906V32.4686H112.425V30.4994Z" fill="black"/>
<path d="M136.42 32.8161C134.856 32.8161 133.505 32.5555 132.366 32.0342C131.246 31.4936 130.291 30.7793 129.499 29.8913L131.063 28.5302C131.777 29.2831 132.559 29.8623 133.409 30.2677C134.258 30.6732 135.281 30.8759 136.478 30.8759C137.637 30.8759 138.582 30.6732 139.316 30.2677C140.069 29.843 140.445 29.1866 140.445 28.2986C140.445 27.9124 140.368 27.5939 140.214 27.3429C140.079 27.0726 139.886 26.8603 139.635 26.7058C139.384 26.5514 139.104 26.4356 138.795 26.3583C138.486 26.2618 138.158 26.1846 137.81 26.1267L135.465 25.7792C134.943 25.7019 134.374 25.5958 133.756 25.4606C133.158 25.3255 132.607 25.1131 132.105 24.8235C131.603 24.5146 131.179 24.1092 130.831 23.6073C130.503 23.1053 130.339 22.4489 130.339 21.6381C130.339 20.8852 130.484 20.2384 130.773 19.6979C131.082 19.138 131.507 18.6747 132.048 18.3079C132.588 17.9218 133.225 17.6418 133.959 17.4681C134.692 17.275 135.494 17.1785 136.362 17.1785C137.714 17.1785 138.882 17.3909 139.866 17.8156C140.87 18.2403 141.729 18.8291 142.444 19.582L140.938 21.001C140.764 20.7886 140.542 20.5763 140.272 20.3639C140.021 20.1323 139.702 19.9295 139.316 19.7558C138.949 19.5627 138.515 19.4083 138.013 19.2925C137.511 19.1766 136.932 19.1187 136.275 19.1187C135.098 19.1187 134.19 19.3214 133.553 19.7268C132.936 20.1323 132.627 20.7211 132.627 21.4933C132.627 21.8794 132.694 22.2076 132.829 22.4779C132.984 22.7289 133.187 22.9316 133.438 23.086C133.688 23.2405 133.968 23.366 134.277 23.4625C134.606 23.5397 134.934 23.6073 135.262 23.6652L137.608 24.0127C138.148 24.0899 138.718 24.1961 139.316 24.3312C139.915 24.4664 140.465 24.6884 140.967 24.9973C141.469 25.2869 141.884 25.6826 142.212 26.1846C142.559 26.6865 142.733 27.3429 142.733 28.1538C142.733 29.6403 142.154 30.789 140.996 31.5998C139.857 32.4107 138.332 32.8161 136.42 32.8161Z" fill="black"/>
<path d="M154.334 32.4686C153.195 32.4686 152.355 32.15 151.815 31.513C151.294 30.8759 151.033 30.0554 151.033 29.0515V19.4952H146.052V17.526H149.759C150.261 17.526 150.608 17.4295 150.801 17.2364C151.014 17.024 151.12 16.6669 151.12 16.1649V12.2555H153.35V17.526H160.155V19.4952H153.35V30.4994H160.155V32.4686H154.334Z" fill="black"/>
<path d="M171.495 32.8161C170.414 32.8161 169.449 32.6327 168.599 32.2659C167.769 31.8798 167.065 31.3489 166.486 30.6732C165.906 29.9975 165.462 29.177 165.153 28.2117C164.864 27.2464 164.719 26.1749 164.719 24.9973C164.719 23.8196 164.873 22.7482 165.182 21.7829C165.491 20.8176 165.935 19.9971 166.514 19.3214C167.094 18.6264 167.798 18.0955 168.628 17.7287C169.459 17.3619 170.405 17.1785 171.466 17.1785C172.914 17.1785 174.092 17.497 174.999 18.1341C175.907 18.7712 176.573 19.6014 176.997 20.6246L175.144 21.6091C174.874 20.8369 174.42 20.2384 173.783 19.8137C173.165 19.389 172.393 19.1766 171.466 19.1766C170.791 19.1766 170.183 19.2925 169.642 19.5241C169.121 19.7365 168.677 20.0454 168.31 20.4508C167.943 20.8562 167.663 21.3389 167.47 21.8987C167.296 22.4586 167.209 23.0667 167.209 23.7231V26.2715C167.209 26.9279 167.296 27.536 167.47 28.0958C167.663 28.6557 167.943 29.1384 168.31 29.5438C168.677 29.9492 169.13 30.2677 169.671 30.4994C170.212 30.7118 170.829 30.8179 171.524 30.8179C172.528 30.8179 173.358 30.5863 174.015 30.1229C174.671 29.6596 175.192 29.0225 175.578 28.2117L177.229 29.3411C176.785 30.345 176.09 31.1751 175.144 31.8315C174.217 32.4879 173.001 32.8161 171.495 32.8161Z" fill="black"/>
<path d="M188.338 32.8161C187.295 32.8161 186.349 32.6327 185.5 32.2659C184.67 31.8991 183.955 31.3778 183.357 30.7021C182.778 30.0071 182.334 29.1866 182.025 28.2406C181.716 27.2754 181.562 26.1942 181.562 24.9973C181.562 23.8196 181.716 22.7482 182.025 21.7829C182.334 20.8176 182.778 19.9971 183.357 19.3214C183.955 18.6264 184.67 18.0955 185.5 17.7287C186.349 17.3619 187.295 17.1785 188.338 17.1785C189.38 17.1785 190.317 17.3619 191.147 17.7287C191.996 18.0955 192.711 18.6264 193.29 19.3214C193.888 19.9971 194.342 20.8176 194.651 21.7829C194.96 22.7482 195.114 23.8196 195.114 24.9973C195.114 26.1942 194.96 27.2754 194.651 28.2406C194.342 29.1866 193.888 30.0071 193.29 30.7021C192.711 31.3778 191.996 31.8991 191.147 32.2659C190.317 32.6327 189.38 32.8161 188.338 32.8161ZM188.338 30.8179C189.631 30.8179 190.674 30.4318 191.465 29.6596C192.257 28.8874 192.653 27.6904 192.653 26.0687V23.9258C192.653 22.3041 192.257 21.1072 191.465 20.335C190.674 19.5627 189.631 19.1766 188.338 19.1766C187.044 19.1766 186.002 19.5627 185.21 20.335C184.419 21.1072 184.023 22.3041 184.023 23.9258V26.0687C184.023 27.6904 184.419 28.8874 185.21 29.6596C186.002 30.4318 187.044 30.8179 188.338 30.8179Z" fill="black"/>
<path d="M209.321 30.0361H209.206C208.24 31.8894 206.706 32.8161 204.601 32.8161C202.767 32.8161 201.329 32.1307 200.286 30.76C199.263 29.3893 198.752 27.4684 198.752 24.9973C198.752 22.5262 199.263 20.6052 200.286 19.2345C201.329 17.8638 202.767 17.1785 204.601 17.1785C206.706 17.1785 208.24 18.1052 209.206 19.9585H209.321V11.0393H211.638V32.4686H209.321V30.0361ZM205.499 30.76C206.02 30.76 206.513 30.6925 206.976 30.5573C207.439 30.4222 207.845 30.2291 208.192 29.9781C208.54 29.7079 208.81 29.3893 209.003 29.0225C209.215 28.6364 209.321 28.1924 209.321 27.6904V22.3041C209.321 21.8022 209.215 21.3678 209.003 21.001C208.81 20.6149 208.54 20.2964 208.192 20.0454C207.845 19.7751 207.439 19.5724 206.976 19.4373C206.513 19.3021 206.02 19.2345 205.499 19.2345C204.148 19.2345 203.095 19.6496 202.342 20.4798C201.609 21.2906 201.242 22.3717 201.242 23.7231V26.2715C201.242 27.6229 201.609 28.7136 202.342 29.5438C203.095 30.3546 204.148 30.76 205.499 30.76Z" fill="black"/>
<path d="M223.326 32.8161C222.245 32.8161 221.27 32.6327 220.401 32.2659C219.552 31.8991 218.818 31.3778 218.2 30.7021C217.602 30.0071 217.139 29.1866 216.81 28.2406C216.482 27.2754 216.318 26.2039 216.318 25.0262C216.318 23.8293 216.482 22.7482 216.81 21.7829C217.158 20.8176 217.631 19.9971 218.229 19.3214C218.828 18.6264 219.542 18.0955 220.372 17.7287C221.222 17.3619 222.158 17.1785 223.181 17.1785C224.185 17.1785 225.093 17.3619 225.903 17.7287C226.734 18.0955 227.438 18.6071 228.017 19.2635C228.597 19.9006 229.041 20.6632 229.349 21.5512C229.658 22.4393 229.813 23.4142 229.813 24.476V25.5765H218.751V26.2715C218.751 26.9279 218.857 27.536 219.069 28.0958C219.282 28.6557 219.581 29.1384 219.967 29.5438C220.372 29.9492 220.855 30.2677 221.415 30.4994C221.994 30.7118 222.631 30.8179 223.326 30.8179C224.33 30.8179 225.199 30.5863 225.932 30.1229C226.666 29.6596 227.226 29.0225 227.612 28.2117L229.321 29.37C228.876 30.3739 228.133 31.2041 227.091 31.8605C226.067 32.4975 224.813 32.8161 223.326 32.8161ZM223.181 19.0898C222.544 19.0898 221.955 19.2056 221.415 19.4373C220.874 19.6689 220.401 19.9875 219.996 20.3929C219.61 20.7983 219.301 21.2809 219.069 21.8408C218.857 22.3814 218.751 22.9798 218.751 23.6362V23.8389H227.322V23.5204C227.322 22.864 227.216 22.2655 227.004 21.725C226.811 21.1844 226.531 20.7211 226.164 20.335C225.817 19.9295 225.382 19.6207 224.861 19.4083C224.359 19.1959 223.799 19.0898 223.181 19.0898Z" fill="black"/>
<path d="M0 26.8153V25.2426C1.42973 25.2426 2.42712 24.9467 2.99217 24.3548C3.56577 23.7629 3.85257 22.7737 3.85257 21.387V17.3284C3.85257 16.1616 3.96387 15.1511 4.18646 14.2971C4.41762 13.4431 4.79003 12.7371 5.30371 12.1791C5.81739 11.621 6.50229 11.2067 7.35841 10.9361C8.21454 10.6656 9.27186 10.5303 10.5304 10.5303V13.0162C9.53726 13.0162 8.7539 13.1684 8.1803 13.4727C7.61525 13.7771 7.21287 14.2506 6.97316 14.8932C6.742 15.5274 6.62643 16.3391 6.62643 17.3284V22.4016C6.62643 23.0611 6.53653 23.6615 6.35675 24.2026C6.18552 24.7438 5.86447 25.2088 5.3936 25.5977C4.92273 25.9867 4.25067 26.2869 3.37742 26.4982C2.51273 26.7096 1.38693 26.8153 0 26.8153ZM10.5304 42.9989C9.27186 42.9989 8.21454 42.8636 7.35841 42.593C6.50229 42.3225 5.81739 41.9082 5.30371 41.3501C4.79003 40.792 4.41762 40.086 4.18646 39.232C3.96387 38.378 3.85257 37.3676 3.85257 36.2008V32.1422C3.85257 30.7555 3.56577 29.7662 2.99217 29.1744C2.42712 28.5825 1.42973 28.2866 0 28.2866V26.7139C1.38693 26.7139 2.51273 26.8195 3.37742 27.0309C4.25067 27.2423 4.92273 27.5425 5.3936 27.9314C5.86447 28.3204 6.18552 28.7854 6.35675 29.3266C6.53653 29.8677 6.62643 30.468 6.62643 31.1276V36.2008C6.62643 37.1901 6.742 38.0018 6.97316 38.6359C7.21287 39.2701 7.61525 39.7394 8.1803 40.0437C8.7539 40.3566 9.53726 40.513 10.5304 40.513V42.9989ZM0 28.2866V25.2426H3.03069V28.2866H0Z" fill="black"/>
<path d="M65.8147 21.1072V19.662C64.5041 19.662 63.5898 19.3901 63.0719 18.8462C62.5461 18.3023 62.2832 17.3933 62.2832 16.119V12.3895C62.2832 11.3173 62.1812 10.3888 61.9771 9.60402C61.7652 8.81928 61.4238 8.1705 60.953 7.65769C60.4821 7.14488 59.8543 6.76416 59.0695 6.51553C58.2847 6.2669 57.3155 6.14258 56.1619 6.14258V8.4269C57.0722 8.4269 57.7903 8.56676 58.3161 8.84647C58.834 9.12618 59.2029 9.56129 59.4226 10.1518C59.6345 10.7345 59.7405 11.4804 59.7405 12.3895V17.0514C59.7405 17.6574 59.8229 18.2091 59.9877 18.7063C60.1446 19.2036 60.4389 19.631 60.8706 19.9884C61.3022 20.3458 61.9182 20.6216 62.7187 20.8159C63.5114 21.0101 64.5433 21.1072 65.8147 21.1072ZM56.1619 35.9786C57.3155 35.9786 58.2847 35.8543 59.0695 35.6057C59.8543 35.357 60.4821 34.9763 60.953 34.4635C61.4238 33.9507 61.7652 33.3019 61.9771 32.5172C62.1812 31.7324 62.2832 30.8039 62.2832 29.7317V26.0022C62.2832 24.7279 62.5461 23.8189 63.0719 23.275C63.5898 22.7311 64.5041 22.4592 65.8147 22.4592V21.014C64.5433 21.014 63.5114 21.1111 62.7187 21.3053C61.9182 21.4996 61.3022 21.7754 60.8706 22.1328C60.4389 22.4902 60.1446 22.9176 59.9877 23.4148C59.8229 23.9121 59.7405 24.4638 59.7405 25.0698V29.7317C59.7405 30.6408 59.6345 31.3867 59.4226 31.9694C59.2029 32.5521 58.834 32.9834 58.3161 33.2631C57.7903 33.5506 57.0722 33.6943 56.1619 33.6943V35.9786ZM65.8147 22.4592V19.662H63.0366V22.4592H65.8147Z" fill="black"/>
<path d="M28.0811 0H54.407V4.38765H28.0811V0Z" fill="white"/>
<path d="M23.6936 11.4072H49.142V15.7949H23.6936V11.4072Z" fill="white"/>
<path d="M18.4282 22.8164H43.8766V27.2041H18.4282V22.8164Z" fill="white"/>
<path d="M12.2856 34.2236H38.6116V38.6113H12.2856V34.2236Z" fill="white"/>
</svg>
