<svg width="766" height="495" viewBox="0 0 766 495" fill="none" xmlns="http://www.w3.org/2000/svg">
<path d="M0.636719 0H765.364V494.824H0.636719V0Z" fill="#6F4F3B"/>
<path d="M170.335 50.1645V47.3997L161.036 44.0568V43.8306L170.335 40.4877V37.7229L158.296 42.6744V45.213L170.335 50.1645Z" fill="#CCB34D"/>
<path d="M178.479 47.1232H180.892L181.018 34.8826H178.404L178.479 47.1232ZM179.711 53.1053C180.741 53.1053 181.571 52.2759 181.571 51.2453C181.571 50.2148 180.741 49.3854 179.711 49.3854C178.68 49.3854 177.851 50.2148 177.851 51.2453C177.851 52.2759 178.68 53.1053 179.711 53.1053Z" fill="#CCB34D"/>
<path d="M189.011 52.854H193.334C198.788 52.854 201.502 49.976 201.502 44.1825C201.502 38.0371 198.788 35.0083 193.334 35.0083H189.011V52.854ZM191.524 50.4662V37.3961H193.334C197.003 37.3961 198.863 39.6457 198.863 44.1825C198.863 48.3674 197.003 50.4662 193.334 50.4662H191.524Z" fill="#CCB34D"/>
<path d="M209.872 53.1053C214.246 53.1053 216.458 50.1143 216.458 44.0568C216.458 37.8485 214.246 34.757 209.872 34.757C205.499 34.757 203.287 37.8485 203.287 44.0568C203.287 50.1143 205.499 53.1053 209.872 53.1053ZM209.872 50.7929C207.246 50.7929 205.926 48.5559 205.926 44.0568C205.926 39.3818 207.246 37.0694 209.872 37.0694C212.499 37.0694 213.818 39.3818 213.818 44.0568C213.818 48.5559 212.499 50.7929 209.872 50.7929Z" fill="#CCB34D"/>
<path d="M226.813 53.1053C228.397 53.1053 229.93 52.8288 231.413 52.2507L230.835 50.0389C229.653 50.5416 228.472 50.7929 227.24 50.7929C223.219 50.7929 221.183 48.4554 221.183 43.7803C221.183 39.4949 223.294 37.0694 226.537 37.0694C227.894 37.0694 229.113 37.7229 229.867 38.8539L231.727 37.0065C230.885 35.5738 228.975 34.757 226.511 34.757C221.409 34.757 218.494 38.0999 218.494 43.906C218.494 50.0389 221.283 53.1053 226.813 53.1053Z" fill="#CCB34D"/>
<path d="M238.777 52.854H241.291V37.3961H246.569V35.0083H233.499V37.3961H238.777V52.854Z" fill="#CCB34D"/>
<path d="M253.858 52.854H256.372V46.5326L262.341 35.0083H259.576L255.228 43.9311H255.002L250.653 35.0083H247.889L253.858 46.5326V52.854Z" fill="#CCB34D"/>
<path d="M264.666 52.854H267.179V47.3243H269.919C274.393 47.3243 276.731 45.125 276.731 40.915C276.731 37.0317 274.393 35.0083 269.919 35.0083H264.666V52.854ZM267.179 44.9365V37.3961H269.919C272.659 37.3961 274.092 38.6026 274.092 40.915C274.092 43.5541 272.659 44.9365 269.919 44.9365H267.179Z" fill="#CCB34D"/>
<path d="M279.747 52.854H291.56V50.4662H282.26V45.1125H289.298V42.7247H282.26V37.3961H291.56V35.0083H279.747V52.854Z" fill="#CCB34D"/>
<path d="M318.203 52.854H320.867V44.1825C320.867 41.0658 319.259 39.2812 316.443 39.2812C314.206 39.2812 313.075 40.1609 312.925 41.9455H312.673V34.0029H310.009V52.854H312.673V45.3638C312.673 42.8001 313.729 41.5433 315.815 41.5433C317.323 41.5433 318.203 42.4985 318.203 44.1825V52.854Z" fill="#CCB34D"/>
<path d="M332.932 53.1053C334.189 53.1053 335.244 53.0048 336.426 52.8037L336.124 50.4662C334.917 50.617 334.013 50.7175 333.183 50.7175C330.821 50.7175 329.865 49.8127 329.865 47.7013V41.7193H335.923V39.5326H329.865V35.511H327.201V39.5326H323.858V41.7193H327.201V47.827C327.201 51.5218 328.885 53.1053 332.932 53.1053Z" fill="#CCB34D"/>
<path d="M349.068 52.854H351.733V42.4231C351.733 40.2112 350.928 39.2812 349.093 39.2812C347.686 39.2812 346.932 40.1609 346.856 41.1915H346.643C346.391 39.9096 345.612 39.2812 344.494 39.2812C343.036 39.2812 342.307 39.9096 342.207 41.1915H342.005L341.83 39.5326H339.467V52.854H342.131V43.1017C342.131 41.8952 342.558 41.292 343.413 41.292C344.117 41.292 344.469 41.669 344.469 42.4231V52.854H346.731V43.1017C346.731 41.8952 347.158 41.292 348.038 41.292C348.742 41.292 349.068 41.7444 349.068 42.6744V52.854Z" fill="#CCB34D"/>
<path d="M362.666 53.1053C364.099 53.1053 365.28 52.9545 366.637 52.5775L366.336 50.24C365.23 50.5667 364.426 50.7175 363.672 50.7175C361.384 50.7175 360.957 49.8127 360.957 47.7013V34.0029H354.372V36.1896H358.293V47.827C358.293 51.5218 359.575 53.1053 362.666 53.1053Z" fill="#CCB34D"/>
<path d="M370.056 50.1645L382.095 45.213V42.6744L370.056 37.7229V40.4877L378.853 43.8306V44.0568L370.056 47.3997V50.1645Z" fill="#CCB34D"/>
<path d="M170.335 102.03V99.265L161.036 95.922V95.6958L170.335 92.3529V89.5881L158.296 94.5396V97.0782L170.335 102.03Z" fill="#CCB34D"/>
<path d="M182.475 104.719H185.14V96.0477C185.14 92.931 183.531 91.1465 180.716 91.1465C178.479 91.1465 177.348 92.0262 177.197 93.8107H176.946V85.8682H174.282V104.719H176.946V97.2291C176.946 94.6653 178.002 93.4086 180.088 93.4086C181.596 93.4086 182.475 94.3637 182.475 96.0477V104.719Z" fill="#CCB34D"/>
<path d="M197.204 104.971C198.461 104.971 199.517 104.87 200.698 104.669L200.397 102.331C199.19 102.482 198.285 102.583 197.456 102.583C195.093 102.583 194.138 101.678 194.138 99.5666V93.5845H200.195V91.3978H194.138V87.3762H191.474V91.3978H188.131V93.5845H191.474V99.6923C191.474 103.387 193.158 104.971 197.204 104.971Z" fill="#CCB34D"/>
<path d="M213.341 104.719H216.005V94.2883C216.005 92.0764 215.201 91.1465 213.366 91.1465C211.958 91.1465 211.204 92.0262 211.129 93.0567H210.915C210.664 91.7748 209.885 91.1465 208.766 91.1465C207.309 91.1465 206.58 91.7748 206.479 93.0567H206.278L206.102 91.3978H203.739V104.719H206.404V94.9669C206.404 93.7605 206.831 93.1572 207.686 93.1572C208.389 93.1572 208.741 93.5342 208.741 94.2883V104.719H211.003V94.9669C211.003 93.7605 211.431 93.1572 212.31 93.1572C213.014 93.1572 213.341 93.6097 213.341 94.5396V104.719Z" fill="#CCB34D"/>
<path d="M226.939 104.971C228.371 104.971 229.553 104.82 230.91 104.443L230.608 102.105C229.503 102.432 228.698 102.583 227.944 102.583C225.657 102.583 225.23 101.678 225.23 99.5666V85.8682H218.644V88.0549H222.565V99.6923C222.565 103.387 223.847 104.971 226.939 104.971Z" fill="#CCB34D"/>
<path d="M234.328 102.03L246.368 97.0782V94.5396L234.328 89.5881V92.3529L243.126 95.6958V95.922L234.328 99.265V102.03Z" fill="#CCB34D"/>
<path d="M170.335 458.072V455.308L161.036 451.965V451.738L170.335 448.395V445.631L158.296 450.582V453.121L170.335 458.072Z" fill="#CCB34D"/>
<path d="M172.059 463.15H174.723L184.827 440.528H182.163L172.059 463.15Z" fill="#CCB34D"/>
<path d="M196.012 460.762H198.676V452.09C198.676 448.974 197.068 447.189 194.253 447.189C192.016 447.189 190.885 448.069 190.734 449.853H190.482V441.911H187.818V460.762H190.482V453.272C190.482 450.708 191.538 449.451 193.624 449.451C195.132 449.451 196.012 450.406 196.012 452.09V460.762Z" fill="#CCB34D"/>
<path d="M210.741 461.013C211.998 461.013 213.053 460.913 214.235 460.711L213.933 458.374C212.727 458.525 211.822 458.625 210.992 458.625C208.63 458.625 207.675 457.72 207.675 455.609V449.627H213.732V447.44H207.675V443.419H205.01V447.44H201.667V449.627H205.01V455.735C205.01 459.43 206.694 461.013 210.741 461.013Z" fill="#CCB34D"/>
<path d="M226.877 460.762H229.542V450.331C229.542 448.119 228.737 447.189 226.903 447.189C225.495 447.189 224.741 448.069 224.666 449.099H224.452C224.201 447.817 223.421 447.189 222.303 447.189C220.845 447.189 220.116 447.817 220.016 449.099H219.815L219.639 447.44H217.276V460.762H219.94V451.009C219.94 449.803 220.368 449.2 221.222 449.2C221.926 449.2 222.278 449.577 222.278 450.331V460.762H224.54V451.009C224.54 449.803 224.967 449.2 225.847 449.2C226.551 449.2 226.877 449.652 226.877 450.582V460.762Z" fill="#CCB34D"/>
<path d="M240.475 461.013C241.908 461.013 243.089 460.862 244.447 460.485L244.145 458.148C243.039 458.474 242.235 458.625 241.481 458.625C239.193 458.625 238.766 457.72 238.766 455.609V441.911H232.181V444.097H236.102V455.735C236.102 459.43 237.384 461.013 240.475 461.013Z" fill="#CCB34D"/>
<path d="M247.865 458.072L259.904 453.121V450.582L247.865 445.631V448.395L256.662 451.738V451.965L247.865 455.308V458.072Z" fill="#CCB34D"/>
<path d="M200.363 321.974V319.209L191.063 315.866V315.64L200.363 312.297V309.532L188.323 314.484V317.023L200.363 321.974Z" fill="#CCB34D"/>
<path d="M207.815 324.915C213.031 324.915 216.009 322.075 216.009 317.123C216.009 313.278 213.973 311.091 210.429 311.091C208.368 311.091 207.287 311.971 207.162 313.755H206.91V305.812H204.246V324.664C205.453 324.814 206.609 324.915 207.815 324.915ZM206.91 317.173C206.91 314.61 208.041 313.353 210.304 313.353C212.264 313.353 213.37 314.71 213.37 317.123C213.37 320.642 211.548 322.653 208.343 322.653C207.865 322.653 207.388 322.653 206.91 322.615V317.173Z" fill="#CCB34D"/>
<path d="M224.819 324.915C228.514 324.915 230.65 322.401 230.65 318.003C230.65 313.604 228.514 311.091 224.819 311.091C221.124 311.091 218.988 313.604 218.988 318.003C218.988 322.401 221.124 324.915 224.819 324.915ZM224.819 322.527C222.858 322.527 221.752 320.893 221.752 318.003C221.752 315.112 222.858 313.479 224.819 313.479C226.779 313.479 227.885 315.112 227.885 318.003C227.885 320.893 226.779 322.527 224.819 322.527Z" fill="#CCB34D"/>
<path d="M238.882 324.915C240.93 324.915 242.25 323.922 242.413 322.251H242.677L242.941 324.789L245.329 324.664V305.812H242.664V313.755H242.413C242.199 312.084 240.88 311.091 238.882 311.091C235.388 311.091 233.566 313.504 233.566 318.129C233.566 322.59 235.388 324.915 238.882 324.915ZM242.664 318.455C242.664 321.208 241.571 322.653 239.472 322.653C237.323 322.653 236.205 321.107 236.205 318.129C236.205 314.987 237.323 313.353 239.472 313.353C241.571 313.353 242.664 314.798 242.664 317.55V318.455Z" fill="#CCB34D"/>
<path d="M248.383 330.696L250.645 330.445C254.214 330.042 256.099 328.258 257.607 323.482L261.453 311.342H258.688L255.433 322.653H255.244L250.896 311.342H248.131L253.435 324.664H254.729C253.774 326.863 252.467 327.805 250.343 328.057L248.257 328.308L248.383 330.696Z" fill="#CCB34D"/>
<path d="M264.356 321.974L276.395 317.023V314.484L264.356 309.532V312.297L273.153 315.64V315.866L264.356 319.209V321.974Z" fill="#CCB34D"/>
<path d="M188.876 362.1H191.389V354.371H193.915C195.675 354.371 196.14 355.012 196.442 356.495L196.919 358.807C197.434 361.333 198.1 362.163 200.287 362.163H201.318V359.775H200.714C199.948 359.775 199.747 359.41 199.508 358.468L198.842 355.791C198.477 354.321 197.774 353.353 195.637 353.353H194.946V353.001H195.637C197.661 353.001 198.239 352.033 198.603 350.563L199.269 347.886C199.508 346.944 199.709 346.579 200.476 346.579H201.079V344.191H200.161C197.975 344.191 197.309 345.021 196.793 347.547L196.316 349.859C196.002 351.367 195.549 351.983 193.915 351.983H191.389V344.254H188.876V362.1Z" fill="white"/>
<path d="M209.738 362.351C213.433 362.351 215.569 359.838 215.569 355.439C215.569 351.041 213.433 348.527 209.738 348.527C206.043 348.527 203.907 351.041 203.907 355.439C203.907 359.838 206.043 362.351 209.738 362.351ZM209.738 359.963C207.777 359.963 206.671 358.33 206.671 355.439C206.671 352.549 207.777 350.915 209.738 350.915C211.698 350.915 212.804 352.549 212.804 355.439C212.804 358.33 211.698 359.963 209.738 359.963Z" fill="white"/>
<path d="M227.583 362.1H230.248V348.779H227.583V354.346H222.054V348.779H219.39V362.1H222.054V356.533H227.583V362.1Z" fill="white"/>
<path d="M238.567 362.1H241.232V351.166H246.309V348.779H233.49V351.166H238.567V362.1Z" fill="white"/>
<path d="M256.262 362.351C257.268 362.351 258.575 362.301 260.158 361.999L259.831 359.662C258.725 359.888 257.67 360.014 256.564 360.014C253.887 360.014 252.203 358.845 251.738 356.621H260.736C260.786 356.093 260.811 355.54 260.811 354.911C260.811 350.764 258.75 348.527 255.156 348.527C251.336 348.527 249.149 351.066 249.149 355.414C249.149 359.888 251.713 362.351 256.262 362.351ZM251.637 354.585C251.851 352.209 253.12 350.865 255.181 350.865C257.192 350.865 258.399 352.197 258.399 354.585H251.637Z" fill="white"/>
<path d="M272.826 362.1H275.49V348.779H272.826V354.346H267.296V348.779H264.632V362.1H267.296V356.533H272.826V362.1Z" fill="white"/>
<path d="M283.81 362.1H286.474V351.166H291.551V348.779H278.733V351.166H283.81V362.1Z" fill="white"/>
<path d="M310 362.1H317.49C320.041 362.1 321.512 360.868 321.512 358.707C321.512 356.583 320.004 355.351 317.365 355.301V355.062C319.677 354.962 321.009 353.931 321.009 352.172C321.009 350.01 319.438 348.779 316.711 348.779H310V362.1ZM312.664 359.712V356.193H316.585C317.943 356.193 318.722 356.834 318.722 357.953C318.722 359.071 318.006 359.712 316.761 359.712H312.664ZM312.664 354.182V351.166H316.083C317.44 351.166 318.219 351.719 318.219 352.674C318.219 353.63 317.503 354.182 316.259 354.182H312.664Z" fill="white"/>
<path d="M331.666 362.351C332.672 362.351 333.979 362.301 335.562 361.999L335.235 359.662C334.129 359.888 333.074 360.014 331.968 360.014C329.291 360.014 327.607 358.845 327.142 356.621H336.14C336.19 356.093 336.216 355.54 336.216 354.911C336.216 350.764 334.155 348.527 330.56 348.527C326.74 348.527 324.553 351.066 324.553 355.414C324.553 359.888 327.117 362.351 331.666 362.351ZM327.041 354.585C327.255 352.209 328.524 350.865 330.585 350.865C332.596 350.865 333.803 352.197 333.803 354.585H327.041Z" fill="white"/>
<path d="M345.666 362.351C349.487 362.351 351.673 360.102 351.673 356.193C351.673 352.436 349.939 350.287 346.923 350.287C344.699 350.287 343.065 351.342 342.55 353.202H342.261V351.971C342.261 349.055 343.429 347.886 347.074 347.27L351.146 346.579L351.02 344.191L346.383 344.983C341.645 345.787 339.584 348.226 339.584 353.252V355.489C339.584 360.19 341.494 362.351 345.666 362.351ZM345.792 360.039C343.618 360.039 342.323 358.656 342.323 356.319C342.323 353.981 343.618 352.599 345.792 352.599C347.803 352.599 348.984 353.981 348.984 356.319C348.984 358.656 347.803 360.039 345.792 360.039Z" fill="white"/>
<path d="M354.262 354.358H366.83V352.021H354.262V354.358Z" fill="white"/>
<path d="M376.909 362.351C378.304 362.351 379.799 362.276 381.182 361.974L380.88 359.637C379.699 359.838 378.454 359.963 377.21 359.963C374.182 359.963 372.485 358.33 372.485 355.288C372.485 352.498 373.943 350.915 376.456 350.915C377.851 350.915 379.07 351.619 379.824 352.838L381.873 351.292C381.081 349.533 379.146 348.527 376.557 348.527C372.221 348.527 369.796 351.066 369.796 355.414C369.796 359.888 372.372 362.351 376.909 362.351Z" fill="white"/>
<path d="M389.376 362.1H392.04V351.166H397.117V348.779H384.298V351.166H389.376V362.1Z" fill="white"/>
<path d="M405.788 362.351C409.483 362.351 411.62 359.838 411.62 355.439C411.62 351.041 409.483 348.527 405.788 348.527C402.094 348.527 399.957 351.041 399.957 355.439C399.957 359.838 402.094 362.351 405.788 362.351ZM405.788 359.963C403.828 359.963 402.722 358.33 402.722 355.439C402.722 352.549 403.828 350.915 405.788 350.915C407.749 350.915 408.855 352.549 408.855 355.439C408.855 358.33 407.749 359.963 405.788 359.963Z" fill="white"/>
<path d="M415.44 367.881H418.104V359.687H418.356C418.519 361.358 419.839 362.351 421.887 362.351C425.381 362.351 427.203 360.026 427.203 355.565C427.203 350.94 425.381 348.527 421.887 348.527C419.814 348.527 418.456 349.52 418.23 351.191H418.067L417.853 348.779H415.44V367.881ZM418.104 355.892V354.987C418.104 352.235 419.198 350.789 421.297 350.789C423.446 350.789 424.564 352.423 424.564 355.565C424.564 358.543 423.446 360.089 421.297 360.089C419.198 360.089 418.104 358.644 418.104 355.892Z" fill="white"/>
<path d="M430.42 362.1H442.259V359.913H438.162V348.779H431.175V350.965H435.498V359.913H430.42V362.1ZM436.742 346.667C437.772 346.667 438.602 345.838 438.602 344.807C438.602 343.777 437.772 342.947 436.742 342.947C435.711 342.947 434.882 343.777 434.882 344.807C434.882 345.838 435.711 346.667 436.742 346.667Z" fill="white"/>
<path d="M453.796 362.1H456.46V348.779H453.796V354.346H448.266V348.779H445.602V362.1H448.266V356.533H453.796V362.1Z" fill="white"/>
<path d="M460.557 362.1H463.221V356.633H465.119C466.187 356.633 466.489 356.947 466.778 357.664L467.645 359.813C468.424 361.748 469.228 362.163 471.202 362.163H471.93V359.775H471.516C470.9 359.775 470.636 359.662 470.397 359.096L469.518 357.035C469.103 356.08 468.223 355.615 466.866 355.615H466.728V355.263H466.74C468.097 355.263 468.851 354.798 469.266 353.843L470.146 351.782C470.385 351.217 470.649 351.103 471.264 351.103H471.805V348.716H471.076C469.103 348.716 468.424 349.13 467.645 351.066L466.778 353.215C466.489 353.931 466.187 354.245 465.119 354.245H463.221V348.779H460.557V362.1Z" fill="white"/>
<path d="M475.763 362.1H478.491L483.706 352.423H483.957V362.1H486.622V348.779H483.895L478.679 358.455H478.428V348.779H475.763V362.1Z" fill="white"/>
<path d="M200.363 398.406V395.642L191.063 392.299V392.072L200.363 388.729V385.965L188.323 390.916V393.455L200.363 398.406Z" fill="#CCB34D"/>
<path d="M202.086 403.484H204.75L214.854 380.862H212.19L202.086 403.484Z" fill="#CCB34D"/>
<path d="M221.352 401.347C226.567 401.347 229.546 398.507 229.546 393.555C229.546 389.71 227.51 387.523 223.966 387.523C221.905 387.523 220.824 388.403 220.698 390.187H220.447V382.245H217.783V401.096C218.989 401.247 220.145 401.347 221.352 401.347ZM220.447 393.606C220.447 391.042 221.578 389.785 223.84 389.785C225.801 389.785 226.907 391.142 226.907 393.555C226.907 397.074 225.084 399.085 221.88 399.085C221.402 399.085 220.924 399.085 220.447 399.047V393.606Z" fill="#CCB34D"/>
<path d="M238.355 401.347C242.05 401.347 244.187 398.834 244.187 394.435C244.187 390.036 242.05 387.523 238.355 387.523C234.661 387.523 232.524 390.036 232.524 394.435C232.524 398.834 234.661 401.347 238.355 401.347ZM238.355 398.959C236.395 398.959 235.289 397.326 235.289 394.435C235.289 391.545 236.395 389.911 238.355 389.911C240.316 389.911 241.422 391.545 241.422 394.435C241.422 397.326 240.316 398.959 238.355 398.959Z" fill="#CCB34D"/>
<path d="M252.418 401.347C254.467 401.347 255.786 400.354 255.95 398.683H256.214L256.477 401.221L258.865 401.096V382.245H256.201V390.187H255.95C255.736 388.516 254.416 387.523 252.418 387.523C248.925 387.523 247.102 389.936 247.102 394.561C247.102 399.022 248.925 401.347 252.418 401.347ZM256.201 394.887C256.201 397.64 255.108 399.085 253.009 399.085C250.86 399.085 249.741 397.539 249.741 394.561C249.741 391.419 250.86 389.785 253.009 389.785C255.108 389.785 256.201 391.23 256.201 393.983V394.887Z" fill="#CCB34D"/>
<path d="M261.919 407.128L264.181 406.877C267.75 406.475 269.636 404.69 271.144 399.914L274.989 387.774H272.224L268.969 399.085H268.781L264.433 387.774H261.668L266.971 401.096H268.266C267.311 403.295 266.004 404.238 263.88 404.489L261.793 404.74L261.919 407.128Z" fill="#CCB34D"/>
<path d="M277.892 398.406L289.932 393.455V390.916L277.892 385.965V388.729L286.689 392.072V392.299L277.892 395.642V398.406Z" fill="#CCB34D"/>
<path d="M200.498 153.897V151.132L191.198 147.789V147.563L200.498 144.22V141.455L188.458 146.407V148.945L200.498 153.897Z" fill="#CCB34D"/>
<path d="M212.638 156.586H215.302V147.915C215.302 144.798 213.693 143.014 210.878 143.014C208.641 143.014 207.51 143.893 207.359 145.678H207.108V137.735H204.444V156.586H207.108V149.096C207.108 146.532 208.164 145.276 210.25 145.276C211.758 145.276 212.638 146.231 212.638 147.915V156.586Z" fill="#CCB34D"/>
<path d="M226.235 156.838C227.241 156.838 228.548 156.787 230.131 156.486L229.805 154.148C228.699 154.375 227.643 154.5 226.537 154.5C223.86 154.5 222.176 153.331 221.711 151.107H230.709C230.76 150.579 230.785 150.026 230.785 149.398C230.785 145.251 228.724 143.014 225.13 143.014C221.309 143.014 219.122 145.552 219.122 149.901C219.122 154.375 221.686 156.838 226.235 156.838ZM221.611 149.071C221.824 146.696 223.094 145.351 225.155 145.351C227.165 145.351 228.372 146.683 228.372 149.071H221.611Z" fill="#CCB34D"/>
<path d="M242.774 156.712L247.047 156.586V154.45L244.785 154.173V148.619C244.785 145.1 242.674 143.24 238.275 143.177L235.586 143.139L235.334 145.502L238.526 145.59C240.99 145.653 242.246 146.445 242.246 148.217V148.832C241.517 148.682 240.688 148.619 239.733 148.619C235.887 148.619 233.7 150.177 233.7 152.992C233.7 155.443 235.297 156.838 238.074 156.838C240.55 156.838 242.196 155.82 242.385 153.771H242.648L242.774 156.712ZM242.246 150.881V151.811C242.246 153.218 240.99 154.701 238.501 154.701C237.043 154.701 236.214 154.035 236.214 152.866C236.214 151.471 237.408 150.755 239.683 150.755C240.55 150.755 241.392 150.755 242.246 150.881Z" fill="#CCB34D"/>
<path d="M254.097 156.838C256.146 156.838 257.465 155.845 257.629 154.173H257.893L258.157 156.712L260.544 156.586V137.735H257.88V145.678H257.629C257.415 144.006 256.095 143.014 254.097 143.014C250.604 143.014 248.781 145.427 248.781 150.051C248.781 154.513 250.604 156.838 254.097 156.838ZM257.88 150.378C257.88 153.13 256.787 154.576 254.688 154.576C252.539 154.576 251.42 153.03 251.42 150.051C251.42 146.91 252.539 145.276 254.688 145.276C256.787 145.276 257.88 146.721 257.88 149.473V150.378Z" fill="#CCB34D"/>
<path d="M264.49 153.897L276.53 148.945V146.407L264.49 141.455V144.22L273.288 147.563V147.789L264.49 151.132V153.897Z" fill="#CCB34D"/>
<path d="M200.498 262.308V259.543L191.198 256.2V255.974L200.498 252.631V249.866L188.458 254.818V257.356L200.498 262.308Z" fill="#CCB34D"/>
<path d="M202.221 267.385H204.885L214.989 244.764H212.325L202.221 267.385Z" fill="#CCB34D"/>
<path d="M226.174 264.997H228.838V256.326C228.838 253.209 227.23 251.424 224.415 251.424C222.178 251.424 221.047 252.304 220.896 254.089H220.645V246.146H217.98V264.997H220.645V257.507C220.645 254.943 221.7 253.686 223.786 253.686C225.294 253.686 226.174 254.642 226.174 256.326V264.997Z" fill="#CCB34D"/>
<path d="M239.772 265.248C240.777 265.248 242.084 265.198 243.668 264.897L243.341 262.559C242.235 262.785 241.18 262.911 240.074 262.911C237.397 262.911 235.713 261.742 235.248 259.518H244.246C244.296 258.99 244.321 258.437 244.321 257.809C244.321 253.661 242.26 251.424 238.666 251.424C234.846 251.424 232.659 253.963 232.659 258.311C232.659 262.785 235.223 265.248 239.772 265.248ZM235.147 257.482C235.361 255.107 236.63 253.762 238.691 253.762C240.702 253.762 241.908 255.094 241.908 257.482H235.147Z" fill="#CCB34D"/>
<path d="M256.311 265.123L260.584 264.997V262.861L258.321 262.584V257.029C258.321 253.511 256.21 251.651 251.812 251.588L249.122 251.55L248.871 253.913L252.063 254.001C254.526 254.064 255.783 254.855 255.783 256.627V257.243C255.054 257.092 254.224 257.029 253.269 257.029C249.424 257.029 247.237 258.588 247.237 261.403C247.237 263.853 248.833 265.248 251.61 265.248C254.086 265.248 255.733 264.231 255.921 262.182H256.185L256.311 265.123ZM255.783 259.292V260.222C255.783 261.629 254.526 263.112 252.038 263.112C250.58 263.112 249.75 262.446 249.75 261.277C249.75 259.882 250.944 259.166 253.219 259.166C254.086 259.166 254.928 259.166 255.783 259.292Z" fill="#CCB34D"/>
<path d="M267.634 265.248C269.682 265.248 271.002 264.256 271.165 262.584H271.429L271.693 265.123L274.081 264.997V246.146H271.417V254.089H271.165C270.952 252.417 269.632 251.424 267.634 251.424C264.14 251.424 262.318 253.837 262.318 258.462C262.318 262.923 264.14 265.248 267.634 265.248ZM271.417 258.789C271.417 261.541 270.323 262.986 268.224 262.986C266.075 262.986 264.957 261.441 264.957 258.462C264.957 255.32 266.075 253.686 268.224 253.686C270.323 253.686 271.417 255.132 271.417 257.884V258.789Z" fill="#CCB34D"/>
<path d="M278.027 262.308L290.067 257.356V254.818L278.027 249.866V252.631L286.824 255.974V256.2L278.027 259.543V262.308Z" fill="#CCB34D"/>
<path d="M230.66 192.503V189.738L221.36 186.395V186.169L230.66 182.826V180.061L218.62 185.013V187.551L230.66 192.503Z" fill="#CCB34D"/>
<path d="M243.503 195.192H246.168V184.761C246.168 182.549 245.363 181.619 243.529 181.619C242.121 181.619 241.367 182.499 241.292 183.53H241.078C240.827 182.248 240.047 181.619 238.929 181.619C237.471 181.619 236.742 182.248 236.642 183.53H236.441L236.265 181.871H233.902V195.192H236.566V185.44C236.566 184.233 236.994 183.63 237.848 183.63C238.552 183.63 238.904 184.007 238.904 184.761V195.192H241.166V185.44C241.166 184.233 241.593 183.63 242.473 183.63C243.177 183.63 243.503 184.083 243.503 185.013V195.192Z" fill="#CCB34D"/>
<path d="M256.398 195.444C257.403 195.444 258.71 195.393 260.293 195.092L259.967 192.754C258.861 192.98 257.805 193.106 256.699 193.106C254.022 193.106 252.338 191.937 251.873 189.713H260.872C260.922 189.185 260.947 188.632 260.947 188.004C260.947 183.856 258.886 181.619 255.292 181.619C251.471 181.619 249.284 184.158 249.284 188.506C249.284 192.98 251.848 195.444 256.398 195.444ZM251.773 187.677C251.986 185.302 253.256 183.957 255.317 183.957C257.328 183.957 258.534 185.289 258.534 187.677H251.773Z" fill="#CCB34D"/>
<path d="M272.609 195.444C273.866 195.444 274.922 195.343 276.103 195.142L275.802 192.804C274.595 192.955 273.69 193.056 272.861 193.056C270.498 193.056 269.543 192.151 269.543 190.04V184.058H275.6V181.871H269.543V177.849H266.879V181.871H263.536V184.058H266.879V190.165C266.879 193.86 268.563 195.444 272.609 195.444Z" fill="#CCB34D"/>
<path d="M288.017 195.318L292.29 195.192V193.056L290.028 192.779V187.225C290.028 183.706 287.916 181.846 283.518 181.783L280.829 181.745L280.577 184.108L283.769 184.196C286.232 184.259 287.489 185.05 287.489 186.822V187.438C286.76 187.287 285.931 187.225 284.976 187.225C281.13 187.225 278.943 188.783 278.943 191.598C278.943 194.049 280.539 195.444 283.317 195.444C285.793 195.444 287.439 194.426 287.627 192.377H287.891L288.017 195.318ZM287.489 189.487V190.417C287.489 191.824 286.232 193.307 283.744 193.307C282.286 193.307 281.457 192.641 281.457 191.472C281.457 190.077 282.651 189.361 284.925 189.361C285.793 189.361 286.635 189.361 287.489 189.487Z" fill="#CCB34D"/>
<path d="M316.721 195.444C318.116 195.444 319.611 195.368 320.994 195.067L320.692 192.729C319.511 192.93 318.267 193.056 317.022 193.056C313.994 193.056 312.297 191.422 312.297 188.381C312.297 185.591 313.755 184.007 316.268 184.007C317.663 184.007 318.882 184.711 319.636 185.93L321.685 184.384C320.893 182.625 318.958 181.619 316.369 181.619C312.033 181.619 309.608 184.158 309.608 188.506C309.608 192.98 312.184 195.444 316.721 195.444Z" fill="#CCB34D"/>
<path d="M333.285 195.192H335.949V186.521C335.949 183.404 334.34 181.619 331.525 181.619C329.288 181.619 328.157 182.499 328.006 184.284H327.755V176.341H325.091V195.192H327.755V187.702C327.755 185.138 328.811 183.882 330.897 183.882C332.405 183.882 333.285 184.837 333.285 186.521V195.192Z" fill="#CCB34D"/>
<path d="M348.34 195.318L352.613 195.192V193.056L350.351 192.779V187.225C350.351 183.706 348.24 181.846 343.841 181.783L341.152 181.745L340.9 184.108L344.093 184.196C346.556 184.259 347.812 185.05 347.812 186.822V187.438C347.084 187.287 346.254 187.225 345.299 187.225C341.453 187.225 339.267 188.783 339.267 191.598C339.267 194.049 340.863 195.444 343.64 195.444C346.116 195.444 347.762 194.426 347.951 192.377H348.215L348.34 195.318ZM347.812 189.487V190.417C347.812 191.824 346.556 193.307 344.067 193.307C342.61 193.307 341.78 192.641 341.78 191.472C341.78 190.077 342.974 189.361 345.249 189.361C346.116 189.361 346.958 189.361 347.812 189.487Z" fill="#CCB34D"/>
<path d="M359.777 189.462C359.777 185.892 360.883 183.882 363.145 183.882C364.427 183.882 364.979 184.686 364.979 186.621H367.619C367.619 183.102 366.437 181.619 363.698 181.619C361.385 181.619 360.179 182.826 360.028 185.289H359.726L359.274 181.871H354.649V184.058H357.112V193.005H354.146V195.192H363.044V193.005H359.777V189.462Z" fill="#CCB34D"/>
<path d="M374.732 195.444C379.357 195.444 381.342 194.212 381.342 191.347C381.342 189.21 380.085 188.23 377.295 187.551L374.832 186.948C373.689 186.672 373.148 186.42 373.148 185.641C373.148 184.485 374.405 184.007 377.396 184.007C378.376 184.007 379.357 184.058 380.714 184.183L380.99 181.871C379.809 181.695 378.753 181.619 377.471 181.619C372.495 181.619 370.383 182.851 370.383 185.767C370.383 187.777 371.577 188.594 374.204 189.26L377.27 190.04C378.15 190.266 378.577 190.593 378.577 191.397C378.577 192.553 377.421 193.056 374.732 193.056C373.525 193.056 372.243 192.93 370.484 192.654L370.182 195.067C371.364 195.343 372.721 195.444 374.732 195.444Z" fill="#CCB34D"/>
<path d="M392.125 195.444C393.13 195.444 394.437 195.393 396.021 195.092L395.694 192.754C394.588 192.98 393.533 193.106 392.427 193.106C389.75 193.106 388.066 191.937 387.601 189.713H396.599C396.649 189.185 396.674 188.632 396.674 188.004C396.674 183.856 394.613 181.619 391.019 181.619C387.199 181.619 385.012 184.158 385.012 188.506C385.012 192.98 387.576 195.444 392.125 195.444ZM387.5 187.677C387.714 185.302 388.983 183.957 391.044 183.957C393.055 183.957 394.261 185.289 394.261 187.677H387.5Z" fill="#CCB34D"/>
<path d="M408.337 195.444C409.594 195.444 410.649 195.343 411.831 195.142L411.529 192.804C410.322 192.955 409.418 193.056 408.588 193.056C406.226 193.056 405.27 192.151 405.27 190.04V184.058H411.328V181.871H405.27V177.849H402.606V181.871H399.263V184.058H402.606V190.165C402.606 193.86 404.29 195.444 408.337 195.444Z" fill="#CCB34D"/>
<path d="M414.721 190.593H427.288V188.255H414.721V190.593ZM414.721 184.309H427.288V181.971H414.721V184.309Z" fill="#CCB34D"/>
<path d="M432.529 186.772L433.233 186.005C434.728 184.384 435.432 182.675 435.432 181.142C435.432 178.654 434.062 177.347 431.423 177.347H430.481V179.672H431.046C432.24 179.672 432.856 180.174 432.856 181.142C432.856 182.172 432.366 183.253 431.398 184.296L430.644 185.113L432.529 186.772ZM438.31 186.772L439.014 186.005C440.509 184.384 441.213 182.675 441.213 181.142C441.213 178.654 439.843 177.347 437.204 177.347H436.261V179.672H436.827C438.021 179.672 438.637 180.174 438.637 181.142C438.637 182.172 438.147 183.253 437.179 184.296L436.425 185.113L438.31 186.772Z" fill="#CCB34D"/>
<path d="M449.859 195.444C451.644 195.444 452.926 194.438 453.353 192.628H453.592L453.78 195.318L458.053 195.192V193.056L456.218 192.779V181.871H453.554V189.034C453.554 191.937 452.549 193.056 450.613 193.056C449.042 193.056 448.125 192.201 448.125 190.668V181.871H445.461V190.668C445.461 193.709 447.057 195.444 449.859 195.444Z" fill="#CCB34D"/>
<path d="M468.66 195.444C469.917 195.444 470.973 195.343 472.154 195.142L471.852 192.804C470.646 192.955 469.741 193.056 468.911 193.056C466.549 193.056 465.594 192.151 465.594 190.04V184.058H471.651V181.871H465.594V177.849H462.929V181.871H459.586V184.058H462.929V190.165C462.929 193.86 464.613 195.444 468.66 195.444Z" fill="#CCB34D"/>
<path d="M478.84 195.192H481.504V187.074H486.958V184.887H481.504V182.876C481.504 179.935 482.685 178.478 485.073 178.478C485.827 178.478 486.581 178.528 487.637 178.654L487.913 176.341C486.983 176.165 486.154 176.09 485.148 176.09C480.926 176.09 478.84 178.377 478.84 183.002V184.887H474.642V187.074H478.84V195.192Z" fill="#CCB34D"/>
<path d="M490.125 187.451H502.693V185.113H490.125V187.451Z" fill="#CCB34D"/>
<path d="M511.49 195.444C515.36 195.444 517.572 193.558 517.572 190.291C517.572 187.891 516.152 186.32 513.601 185.792V185.603C515.825 185.088 517.07 183.693 517.07 181.619C517.07 178.754 515.034 177.095 511.49 177.095C507.946 177.095 505.91 178.754 505.91 181.619C505.91 183.706 507.154 185.101 509.403 185.603V185.792C506.84 186.307 505.407 187.891 505.407 190.291C505.407 193.558 507.619 195.444 511.49 195.444ZM511.49 193.131C509.29 193.131 508.046 192.05 508.046 190.165C508.046 188.155 509.29 186.973 511.49 186.973C513.689 186.973 514.933 188.155 514.933 190.165C514.933 192.05 513.689 193.131 511.49 193.131ZM511.49 184.56C509.617 184.56 508.549 183.655 508.549 182.122C508.549 180.388 509.617 179.408 511.49 179.408C513.362 179.408 514.43 180.388 514.43 182.122C514.43 183.655 513.362 184.56 511.49 184.56Z" fill="#CCB34D"/>
<path d="M523.014 186.772L523.718 186.005C525.213 184.384 525.917 182.675 525.917 181.142C525.917 178.654 524.547 177.347 521.908 177.347H520.965V179.672H521.531C522.725 179.672 523.341 180.174 523.341 181.142C523.341 182.172 522.851 183.253 521.883 184.296L521.129 185.113L523.014 186.772ZM528.795 186.772L529.499 186.005C530.994 184.384 531.698 182.675 531.698 181.142C531.698 178.654 530.328 177.347 527.689 177.347H526.746V179.672H527.312C528.506 179.672 529.122 180.174 529.122 181.142C529.122 182.172 528.632 183.253 527.664 184.296L526.91 185.113L528.795 186.772Z" fill="#CCB34D"/>
<path d="M535.946 192.503L547.985 187.551V185.013L535.946 180.061V182.826L544.743 186.169V186.395L535.946 189.738V192.503Z" fill="#CCB34D"/>
<path d="M230.66 223.701V220.936L221.36 217.594V217.367L230.66 214.024V211.26L218.62 216.211V218.75L230.66 223.701Z" fill="#CCB34D"/>
<path d="M242.448 226.642C243.705 226.642 244.76 226.541 245.942 226.34L245.64 224.003C244.433 224.154 243.529 224.254 242.699 224.254C240.336 224.254 239.381 223.349 239.381 221.238V215.256H245.439V213.069H239.381V209.048H236.717V213.069H233.374V215.256H236.717V221.364C236.717 225.059 238.401 226.642 242.448 226.642Z" fill="#CCB34D"/>
<path d="M249.586 226.391H261.425V224.204H257.328V213.069H250.34V215.256H254.663V224.204H249.586V226.391ZM255.907 210.958C256.938 210.958 257.767 210.129 257.767 209.098C257.767 208.067 256.938 207.238 255.907 207.238C254.877 207.238 254.047 208.067 254.047 209.098C254.047 210.129 254.877 210.958 255.907 210.958Z" fill="#CCB34D"/>
<path d="M272.609 226.642C273.866 226.642 274.922 226.541 276.103 226.34L275.802 224.003C274.595 224.154 273.69 224.254 272.861 224.254C270.498 224.254 269.543 223.349 269.543 221.238V215.256H275.6V213.069H269.543V209.048H266.879V213.069H263.536V215.256H266.879V221.364C266.879 225.059 268.563 226.642 272.609 226.642Z" fill="#CCB34D"/>
<path d="M287.263 226.642C288.696 226.642 289.877 226.491 291.234 226.114L290.933 223.777C289.827 224.103 289.022 224.254 288.268 224.254C285.981 224.254 285.554 223.349 285.554 221.238V207.54H278.969V209.726H282.89V221.364C282.89 225.059 284.171 226.642 287.263 226.642Z" fill="#CCB34D"/>
<path d="M301.64 226.642C302.645 226.642 303.952 226.592 305.536 226.29L305.209 223.953C304.103 224.179 303.048 224.304 301.942 224.304C299.265 224.304 297.581 223.136 297.116 220.911H306.114C306.164 220.383 306.189 219.831 306.189 219.202C306.189 215.055 304.128 212.818 300.534 212.818C296.714 212.818 294.527 215.357 294.527 219.705C294.527 224.179 297.091 226.642 301.64 226.642ZM297.015 218.875C297.229 216.5 298.498 215.155 300.559 215.155C302.57 215.155 303.776 216.488 303.776 218.875H297.015Z" fill="#CCB34D"/>
<path d="M309.733 223.701L321.773 218.75V216.211L309.733 211.26V214.024L318.531 217.367V217.594L309.733 220.936V223.701Z" fill="#CCB34D"/>
<path d="M330.093 226.642C334.001 226.642 336.452 224.594 336.452 221.439C336.452 218.574 334.064 217.028 331.412 216.902V216.752C334.504 216.035 335.748 214.741 335.748 212.655C335.748 210.053 333.737 208.294 328.924 208.294C327.479 208.294 326.121 208.57 325.342 208.809L325.656 211.121C326.737 210.87 327.868 210.619 328.886 210.619C331.952 210.619 333.184 211.699 333.184 213.094C333.184 214.879 331.588 215.708 327.529 215.834L327.805 218.197H329.69C332.166 218.197 333.838 219.265 333.838 221.175C333.838 223.148 332.455 224.33 330.155 224.33C328.258 224.33 327.164 223.877 325.593 222.721L323.784 224.493C325.405 225.926 327.466 226.642 330.093 226.642Z" fill="white"/>
<path d="M348.34 226.516L352.613 226.391V224.254L350.351 223.978V218.423C350.351 214.904 348.24 213.044 343.841 212.981L341.152 212.944L340.9 215.306L344.093 215.394C346.556 215.457 347.812 216.249 347.812 218.021V218.637C347.084 218.486 346.254 218.423 345.299 218.423C341.453 218.423 339.267 219.981 339.267 222.796C339.267 225.247 340.863 226.642 343.64 226.642C346.116 226.642 347.762 225.624 347.951 223.576H348.215L348.34 226.516ZM347.812 220.685V221.615C347.812 223.023 346.556 224.506 344.067 224.506C342.61 224.506 341.78 223.839 341.78 222.671C341.78 221.276 342.974 220.559 345.249 220.559C346.116 220.559 346.958 220.559 347.812 220.685Z" fill="white"/>
<path d="M356.484 226.391H359.148V215.457H365.96V213.069H356.484V226.391Z" fill="white"/>
<path d="M375.762 226.642C379.457 226.642 381.594 224.129 381.594 219.73C381.594 215.331 379.457 212.818 375.762 212.818C372.067 212.818 369.931 215.331 369.931 219.73C369.931 224.129 372.067 226.642 375.762 226.642ZM375.762 224.254C373.802 224.254 372.696 222.62 372.696 219.73C372.696 216.839 373.802 215.206 375.762 215.206C377.723 215.206 378.829 216.839 378.829 219.73C378.829 222.62 377.723 224.254 375.762 224.254Z" fill="white"/>
<path d="M384.094 226.391C387.89 226.391 389.046 224.945 389.046 220.094V215.457H393.683V226.391H396.348V213.069H386.721V220.182C386.721 223.123 386.105 224.003 384.094 224.003V226.391Z" fill="white"/>
<path d="M405.924 226.642C409.619 226.642 411.755 224.129 411.755 219.73C411.755 215.331 409.619 212.818 405.924 212.818C402.229 212.818 400.093 215.331 400.093 219.73C400.093 224.129 402.229 226.642 405.924 226.642ZM405.924 224.254C403.963 224.254 402.857 222.62 402.857 219.73C402.857 216.839 403.963 215.206 405.924 215.206C407.884 215.206 408.99 216.839 408.99 219.73C408.99 222.62 407.884 224.254 405.924 224.254Z" fill="white"/>
<path d="M415.701 226.391H423.191C425.743 226.391 427.213 225.159 427.213 222.997C427.213 220.874 425.705 219.642 423.066 219.592V219.353C425.378 219.252 426.71 218.222 426.71 216.462C426.71 214.301 425.139 213.069 422.412 213.069H415.701V226.391ZM418.366 224.003V220.484H422.287C423.644 220.484 424.423 221.125 424.423 222.243C424.423 223.362 423.707 224.003 422.463 224.003H418.366ZM418.366 218.473V215.457H421.784C423.141 215.457 423.92 216.01 423.92 216.965C423.92 217.92 423.204 218.473 421.96 218.473H418.366Z" fill="white"/>
<path d="M436.086 226.642C439.78 226.642 441.917 224.129 441.917 219.73C441.917 215.331 439.78 212.818 436.086 212.818C432.391 212.818 430.254 215.331 430.254 219.73C430.254 224.129 432.391 226.642 436.086 226.642ZM436.086 224.254C434.125 224.254 433.019 222.62 433.019 219.73C433.019 216.839 434.125 215.206 436.086 215.206C438.046 215.206 439.152 216.839 439.152 219.73C439.152 222.62 438.046 224.254 436.086 224.254Z" fill="white"/>
<path d="M445.612 226.391H448.276V220.924H450.174C451.242 220.924 451.543 221.238 451.832 221.954L452.7 224.103C453.479 226.039 454.283 226.453 456.256 226.453H456.985V224.066H456.57C455.955 224.066 455.691 223.953 455.452 223.387L454.572 221.326C454.157 220.371 453.278 219.906 451.92 219.906H451.782V219.554H451.795C453.152 219.554 453.906 219.089 454.321 218.134L455.201 216.073C455.439 215.507 455.703 215.394 456.319 215.394H456.859V213.006H456.131C454.157 213.006 453.479 213.421 452.7 215.357L451.832 217.506C451.543 218.222 451.242 218.536 450.174 218.536H448.276V213.069H445.612V226.391Z" fill="white"/>
<path d="M474.29 229.784H476.804V226.391H485.475V229.784H487.989V224.003H486.405V213.069H476.791V217.92C476.791 220.585 476.439 222.57 475.56 224.003H474.29V229.784ZM483.741 224.003H478.086C478.827 222.445 479.116 220.409 479.116 217.832V215.457H483.741V224.003Z" fill="white"/>
<path d="M496.409 226.642C500.104 226.642 502.24 224.129 502.24 219.73C502.24 215.331 500.104 212.818 496.409 212.818C492.714 212.818 490.578 215.331 490.578 219.73C490.578 224.129 492.714 226.642 496.409 226.642ZM496.409 224.254C494.448 224.254 493.342 222.62 493.342 219.73C493.342 216.839 494.448 215.206 496.409 215.206C498.369 215.206 499.475 216.839 499.475 219.73C499.475 222.62 498.369 224.254 496.409 224.254Z" fill="white"/>
<path d="M505.935 226.391H508.599V220.924H510.497C511.565 220.924 511.867 221.238 512.156 221.954L513.023 224.103C513.802 226.039 514.606 226.453 516.579 226.453H517.308V224.066H516.894C516.278 224.066 516.014 223.953 515.775 223.387L514.895 221.326C514.481 220.371 513.601 219.906 512.244 219.906H512.105V219.554H512.118C513.475 219.554 514.229 219.089 514.644 218.134L515.524 216.073C515.763 215.507 516.026 215.394 516.642 215.394H517.183V213.006H516.454C514.481 213.006 513.802 213.421 513.023 215.357L512.156 217.506C511.867 218.222 511.565 218.536 510.497 218.536H508.599V213.069H505.935V226.391Z" fill="white"/>
<path d="M519.973 232.423L522.235 232.172C525.804 231.769 527.689 229.985 529.197 225.209L533.043 213.069H530.278L527.023 224.38H526.834L522.486 213.069H519.721L525.025 226.391H526.319C525.364 228.59 524.057 229.532 521.933 229.784L519.847 230.035L519.973 232.423Z" fill="white"/>
<path d="M535.72 226.391H538.258V216.236H538.585L540.621 223.626H542.682L544.718 216.236H545.045V226.391H547.583V213.069H543.913L541.752 220.735H541.551L539.389 213.069H535.72V226.391Z" fill="white"/>
<path d="M558.014 226.642C559.019 226.642 560.326 226.592 561.91 226.29L561.583 223.953C560.477 224.179 559.422 224.304 558.316 224.304C555.639 224.304 553.955 223.136 553.49 220.911H562.488C562.538 220.383 562.563 219.831 562.563 219.202C562.563 215.055 560.502 212.818 556.908 212.818C553.088 212.818 550.901 215.357 550.901 219.705C550.901 224.179 553.465 226.642 558.014 226.642ZM553.389 218.875C553.603 216.5 554.872 215.155 556.933 215.155C558.944 215.155 560.15 216.488 560.15 218.875H553.389Z" fill="white"/>
<path d="M574.578 226.391H577.242V213.069H574.578V218.637H569.048V213.069H566.384V226.391H569.048V220.823H574.578V226.391Z" fill="white"/>
<path d="M585.562 226.391H588.226V215.457H593.303V213.069H580.484V215.457H585.562V226.391Z" fill="white"/>
<path d="M595.377 232.423L597.639 232.172C601.208 231.769 603.093 229.985 604.601 225.209L608.447 213.069H605.682L602.427 224.38H602.239L597.89 213.069H595.125L600.429 226.391H601.723C600.768 228.59 599.461 229.532 597.337 229.784L595.251 230.035L595.377 232.423Z" fill="white"/>
<path d="M622.761 223.701V220.936L613.461 217.594V217.367L622.761 214.024V211.26L610.722 216.211V218.75L622.761 223.701Z" fill="#CCB34D"/>
<path d="M624.484 228.778H627.149L637.253 206.157H634.588L624.484 228.778Z" fill="#CCB34D"/>
<path d="M648.086 226.642C649.342 226.642 650.398 226.541 651.579 226.34L651.278 224.003C650.071 224.154 649.167 224.254 648.337 224.254C645.974 224.254 645.019 223.349 645.019 221.238V215.256H651.077V213.069H645.019V209.048H642.355V213.069H639.012V215.256H642.355V221.364C642.355 225.059 644.039 226.642 648.086 226.642Z" fill="#CCB34D"/>
<path d="M655.224 226.391H667.062V224.204H662.965V213.069H655.978V215.256H660.301V224.204H655.224V226.391ZM661.545 210.958C662.576 210.958 663.405 210.129 663.405 209.098C663.405 208.067 662.576 207.238 661.545 207.238C660.515 207.238 659.685 208.067 659.685 209.098C659.685 210.129 660.515 210.958 661.545 210.958Z" fill="#CCB34D"/>
<path d="M678.247 226.642C679.504 226.642 680.56 226.541 681.741 226.34L681.44 224.003C680.233 224.154 679.328 224.254 678.499 224.254C676.136 224.254 675.181 223.349 675.181 221.238V215.256H681.238V213.069H675.181V209.048H672.517V213.069H669.174V215.256H672.517V221.364C672.517 225.059 674.201 226.642 678.247 226.642Z" fill="#CCB34D"/>
<path d="M692.901 226.642C694.334 226.642 695.515 226.491 696.872 226.114L696.571 223.777C695.465 224.103 694.66 224.254 693.906 224.254C691.619 224.254 691.192 223.349 691.192 221.238V207.54H684.606V209.726H688.527V221.364C688.527 225.059 689.809 226.642 692.901 226.642Z" fill="#CCB34D"/>
<path d="M707.278 226.642C708.283 226.642 709.59 226.592 711.174 226.29L710.847 223.953C709.741 224.179 708.686 224.304 707.58 224.304C704.903 224.304 703.219 223.136 702.754 220.911H711.752C711.802 220.383 711.827 219.831 711.827 219.202C711.827 215.055 709.766 212.818 706.172 212.818C702.352 212.818 700.165 215.357 700.165 219.705C700.165 224.179 702.729 226.642 707.278 226.642ZM702.653 218.875C702.867 216.5 704.136 215.155 706.197 215.155C708.208 215.155 709.414 216.488 709.414 218.875H702.653Z" fill="#CCB34D"/>
<path d="M715.371 223.701L727.411 218.75V216.211L715.371 211.26V214.024L724.168 217.367V217.594L715.371 220.936V223.701Z" fill="#CCB34D"/>
<path fill-rule="evenodd" clip-rule="evenodd" d="M64.667 43.2998L155.14 43.2998L155.14 44.4697L64.667 44.4697L64.667 43.2998Z" fill="black"/>
<path d="M64.668 44.2759C64.668 51.1678 59.0809 56.7549 52.189 56.7549C45.297 56.7549 39.71 51.1678 39.71 44.2759C39.71 37.3839 45.297 31.7969 52.189 31.7969C59.0809 31.7969 64.668 37.3839 64.668 44.2759Z" fill="#66DAFF"/>
<path d="M46.6545 52.4641V50.5595H51.6734V36.0948H51.4932L46.9633 40.3158L45.7021 38.9517L50.4637 34.499H53.8353V50.5595H58.4682V52.4641H46.6545Z" fill="black"/>
<path fill-rule="evenodd" clip-rule="evenodd" d="M131.35 255.257H185.165V256.427H131.35V255.257Z" fill="black"/>
<path fill-rule="evenodd" clip-rule="evenodd" d="M131.35 146.839H185.165V148.009H131.35V146.839Z" fill="black"/>
<path fill-rule="evenodd" clip-rule="evenodd" d="M130.766 256.42V146.839H131.936V256.42H130.766Z" fill="black"/>
<path fill-rule="evenodd" clip-rule="evenodd" d="M130.767 315.108H185.167V316.278H131.937V391.542H185.167V392.712H130.767V315.108Z" fill="black"/>
<path fill-rule="evenodd" clip-rule="evenodd" d="M81.2412 94.7764H154.75V95.9463H82.4111V451.208H154.75V452.378H81.2412V94.7764Z" fill="black"/>
<path fill-rule="evenodd" clip-rule="evenodd" d="M81.8256 274.162H64.667V272.992H81.8256V274.162Z" fill="black"/>
<path d="M64.668 275.136C64.668 282.028 59.0809 287.615 52.189 287.615C45.297 287.615 39.71 282.028 39.71 275.136C39.71 268.244 45.297 262.657 52.189 262.657C59.0809 262.657 64.668 268.244 64.668 275.136Z" fill="#66DAFF"/>
<path d="M58.1074 283.325H46.3195V281.111L52.1877 275.706C53.0285 274.934 53.732 274.119 54.2982 273.261C54.8645 272.386 55.1476 271.511 55.1476 270.636V270.327C55.1476 269.332 54.873 268.525 54.324 267.908C53.7749 267.29 52.9427 266.981 51.8274 266.981C51.2783 266.981 50.7979 267.058 50.3861 267.213C49.9743 267.367 49.6139 267.582 49.3051 267.856C49.0134 268.131 48.7646 268.457 48.5587 268.834C48.3699 269.195 48.2155 269.589 48.0954 270.018L46.165 269.272C46.3366 268.74 46.5683 268.225 46.86 267.728C47.1688 267.213 47.5463 266.758 47.9924 266.363C48.4557 265.969 49.0048 265.651 49.6397 265.411C50.2917 265.171 51.0552 265.051 51.9303 265.051C52.8054 265.051 53.5861 265.179 54.2725 265.437C54.9588 265.694 55.5336 266.055 55.9969 266.518C56.4602 266.981 56.812 267.53 57.0522 268.165C57.3096 268.8 57.4383 269.503 57.4383 270.276C57.4383 270.979 57.3353 271.631 57.1294 272.232C56.9407 272.832 56.6747 273.407 56.3315 273.956C55.9884 274.488 55.568 275.011 55.0704 275.526C54.5899 276.041 54.0666 276.556 53.5004 277.07L48.6616 281.42H58.1074V283.325Z" fill="black"/>
<path fill-rule="evenodd" clip-rule="evenodd" d="M131.351 202.019H114.192V200.849H131.351V202.019Z" fill="black"/>
<path d="M114.193 202.994C114.193 209.886 108.606 215.473 101.714 215.473C94.8224 215.473 89.2354 209.886 89.2354 202.994C89.2354 196.102 94.8224 190.515 101.714 190.515C108.606 190.515 114.193 196.102 114.193 202.994Z" fill="#66DAFF"/>
<path d="M100.632 200.835C101.85 200.835 102.759 200.561 103.36 200.012C103.978 199.446 104.287 198.725 104.287 197.85V197.67C104.287 196.726 103.986 196.022 103.386 195.559C102.802 195.079 102.03 194.839 101.069 194.839C100.143 194.839 99.3877 195.044 98.8043 195.456C98.2209 195.851 97.7405 196.391 97.363 197.078L95.7673 195.842C95.9903 195.482 96.2563 195.13 96.5651 194.787C96.8911 194.427 97.2686 194.109 97.6976 193.835C98.1266 193.56 98.6242 193.337 99.1904 193.166C99.7566 192.994 100.4 192.908 101.121 192.908C101.876 192.908 102.588 193.011 103.257 193.217C103.926 193.406 104.501 193.698 104.981 194.092C105.479 194.47 105.865 194.942 106.14 195.508C106.431 196.074 106.577 196.717 106.577 197.438C106.577 198.021 106.483 198.545 106.294 199.008C106.122 199.471 105.882 199.875 105.573 200.218C105.265 200.561 104.896 200.853 104.467 201.093C104.055 201.333 103.609 201.513 103.128 201.633V201.736C103.609 201.839 104.072 202.011 104.518 202.251C104.981 202.474 105.385 202.774 105.728 203.152C106.088 203.512 106.371 203.958 106.577 204.49C106.8 205.005 106.912 205.597 106.912 206.266C106.912 207.038 106.766 207.75 106.474 208.402C106.183 209.037 105.771 209.586 105.239 210.05C104.707 210.496 104.063 210.848 103.308 211.105C102.553 211.362 101.721 211.491 100.812 211.491C100.04 211.491 99.3534 211.405 98.7529 211.234C98.1523 211.062 97.6204 210.83 97.1571 210.539C96.6938 210.247 96.282 209.921 95.9217 209.561C95.5785 209.2 95.2697 208.823 94.9951 208.428L96.6166 207.193C96.8397 207.553 97.0799 207.879 97.3373 208.171C97.6118 208.462 97.9121 208.711 98.2381 208.917C98.5641 209.123 98.933 209.286 99.3448 209.406C99.7566 209.509 100.237 209.561 100.786 209.561C102.056 209.561 103.017 209.278 103.669 208.711C104.321 208.128 104.647 207.304 104.647 206.24V206.035C104.647 204.971 104.321 204.156 103.669 203.589C103.017 203.006 102.056 202.714 100.786 202.714H98.6756V200.835H100.632Z" fill="black"/>
<path fill-rule="evenodd" clip-rule="evenodd" d="M215.586 186.808H198.428V185.638H215.586V186.808Z" fill="black"/>
<path d="M198.428 187.783C198.428 194.675 192.841 200.262 185.949 200.262C179.057 200.262 173.47 194.675 173.47 187.783C173.47 180.891 179.057 175.304 185.949 175.304C192.841 175.304 198.428 180.891 198.428 187.783Z" fill="#66DAFF"/>
<path d="M187.802 195.972V192.446H179.128V190.541L186.643 178.007H189.861V190.644H192.46V192.446H189.861V195.972H187.802ZM181.161 190.644H187.802V179.68H187.673L181.161 190.644Z" fill="black"/>
<path fill-rule="evenodd" clip-rule="evenodd" d="M215.586 217.616H198.428V216.446H215.586V217.616Z" fill="black"/>
<path d="M198.428 218.591C198.428 225.483 192.841 231.07 185.949 231.07C179.057 231.07 173.47 225.483 173.47 218.591C173.47 211.699 179.057 206.112 185.949 206.112C192.841 206.112 198.428 211.699 198.428 218.591Z" fill="#66DAFF"/>
<path d="M190.967 210.72H183.091L182.576 217.566H182.756C183.185 216.966 183.666 216.485 184.197 216.125C184.747 215.765 185.493 215.585 186.437 215.585C187.209 215.585 187.921 215.713 188.573 215.971C189.225 216.228 189.791 216.597 190.272 217.077C190.752 217.541 191.121 218.115 191.378 218.802C191.653 219.488 191.79 220.269 191.79 221.144C191.79 222.019 191.653 222.825 191.378 223.563C191.104 224.284 190.701 224.91 190.169 225.442C189.654 225.957 189.019 226.36 188.264 226.652C187.526 226.944 186.685 227.089 185.742 227.089C184.987 227.089 184.318 227.004 183.734 226.832C183.168 226.66 182.662 226.429 182.216 226.137C181.77 225.845 181.375 225.519 181.032 225.159C180.706 224.799 180.405 224.421 180.131 224.027L181.752 222.791C181.975 223.151 182.207 223.477 182.447 223.769C182.705 224.061 182.979 224.31 183.271 224.516C183.58 224.721 183.931 224.884 184.326 225.005C184.721 225.108 185.193 225.159 185.742 225.159C186.977 225.159 187.912 224.833 188.547 224.181C189.182 223.529 189.499 222.611 189.499 221.427V221.17C189.499 219.986 189.182 219.068 188.547 218.416C187.912 217.764 186.977 217.438 185.742 217.438C184.918 217.438 184.266 217.592 183.786 217.901C183.322 218.193 182.902 218.544 182.524 218.956L180.697 218.699L181.341 208.815H190.967V210.72Z" fill="black"/>
<path fill-rule="evenodd" clip-rule="evenodd" d="M131.351 354.496H114.192V353.326H131.351V354.496Z" fill="black"/>
<path d="M114.193 355.47C114.193 362.362 108.606 367.949 101.714 367.949C94.8224 367.949 89.2354 362.362 89.2354 355.47C89.2354 348.578 94.8224 342.991 101.714 342.991C108.606 342.991 114.193 348.578 114.193 355.47Z" fill="#66DAFF"/>
<path d="M101.661 363.968C100.735 363.968 99.894 363.814 99.139 363.505C98.4012 363.179 97.7663 362.724 97.2344 362.141C96.7197 361.54 96.325 360.811 96.0505 359.953C95.7759 359.095 95.6387 358.134 95.6387 357.071C95.6387 355.732 95.836 354.48 96.2306 353.313C96.6253 352.129 97.1315 351.056 97.7492 350.096C98.3841 349.117 99.079 348.26 99.834 347.522C100.589 346.767 101.327 346.158 102.047 345.694H104.827C103.866 346.398 103.008 347.084 102.253 347.753C101.498 348.423 100.838 349.126 100.272 349.864C99.7053 350.585 99.2248 351.365 98.8302 352.206C98.4355 353.03 98.1181 353.965 97.8779 355.011L98.0066 355.063C98.4355 354.325 98.9846 353.716 99.6538 353.236C100.34 352.738 101.232 352.489 102.331 352.489C103.103 352.489 103.815 352.618 104.467 352.875C105.119 353.133 105.676 353.502 106.14 353.982C106.603 354.462 106.963 355.046 107.221 355.732C107.495 356.418 107.633 357.182 107.633 358.023C107.633 358.898 107.487 359.704 107.195 360.442C106.92 361.163 106.517 361.789 105.985 362.321C105.471 362.836 104.844 363.239 104.106 363.531C103.369 363.822 102.554 363.968 101.661 363.968ZM101.636 362.089C102.82 362.089 103.738 361.763 104.39 361.111C105.059 360.459 105.393 359.524 105.393 358.306V358.1C105.393 356.882 105.059 355.947 104.39 355.295C103.738 354.643 102.82 354.317 101.636 354.317C100.452 354.317 99.5251 354.643 98.8559 355.295C98.2039 355.947 97.8779 356.882 97.8779 358.1V358.306C97.8779 359.524 98.2039 360.459 98.8559 361.111C99.5251 361.763 100.452 362.089 101.636 362.089Z" fill="black"/>
</svg>
